<svg xmlns="http://www.w3.org/2000/svg" xmlns:xlink="http://www.w3.org/1999/xlink" width="80" height="80" viewBox="0 0 80 80">
  <defs>
    <clipPath id="clip-path">
      <rect id="Rectangle_1148" data-name="Rectangle 1148" width="80" height="80" transform="translate(392 430)" fill="#472b2b"/>
    </clipPath>
    <linearGradient id="linear-gradient" x1="-0.29" y1="1.562" x2="0.733" y2="-0.211" gradientUnits="objectBoundingBox">
      <stop offset="0" stop-color="#00b2a9"/>
      <stop offset="1" stop-color="#06f9b7"/>
    </linearGradient>
    <linearGradient id="linear-gradient-2" x1="-0.105" y1="1.18" x2="0.913" y2="-0.047" xlink:href="#linear-gradient"/>
  </defs>
  <g id="email" transform="translate(-392 -430)" clip-path="url(#clip-path)">
    <g id="email-2" data-name="email" transform="translate(389.333 427.333)">
      <path id="Path_1" data-name="Path 1" d="M82.517,19.037a9.824,9.824,0,0,0-9.688-8.371H12.5a9.824,9.824,0,0,0-9.688,8.371L42.667,44.824Z" fill="url(#linear-gradient)"/>
      <path id="Path_2" data-name="Path 2" d="M44.115,50.24a2.667,2.667,0,0,1-2.9,0L2.667,25.3V64.829A9.848,9.848,0,0,0,12.5,74.667H72.829a9.848,9.848,0,0,0,9.837-9.837V25.293Z" fill="url(#linear-gradient-2)"/>
    </g>
  </g>
</svg>
