<?xml version="1.0" encoding="UTF-8" standalone="no"?>
<!DOCTYPE svg PUBLIC "-//W3C//DTD SVG 1.1//EN" "http://www.w3.org/Graphics/SVG/1.1/DTD/svg11.dtd">
<svg xmlns="http://www.w3.org/2000/svg" version="1.1" viewBox="0.00 0.00 300.00 300.00">
<path fill="#818d93" d="
  M 256.44 85.78
  C 258.13 87.57 257.97 89.35 257.97 91.74
  C 258.01 156.89 258.01 222.09 257.98 287.33
  C 257.98 287.78 257.76 288.00 257.31 288.00
  L 42.75 288.00
  C 42.34 288.00 42.00 287.66 42.00 287.25
  L 42.00 12.96
  C 42.00 12.33 42.32 12.01 42.95 12.01
  C 87.92 12.00 132.93 11.99 178.00 12.00
  C 181.44 12.01 184.21 13.07 186.31 15.20
  C 206.63 35.83 229.39 58.72 254.60 83.89
  C 255.25 84.54 255.87 85.17 256.44 85.78
  Z
  M 174.59 95.99
  C 174.26 95.99 174.00 95.73 174.00 95.40
  L 174.00 24.59
  C 174.00 24.26 173.74 24.00 173.41 24.00
  L 54.58 24.00
  C 54.25 24.00 53.99 24.26 53.99 24.59
  L 54.00 275.41
  C 54.00 275.74 54.26 276.00 54.59 276.00
  L 245.41 276.00
  C 245.74 276.00 246.00 275.74 246.00 275.41
  L 246.00 96.59
  C 246.00 96.26 245.74 96.00 245.41 96.00
  L 174.59 95.99
  Z
  M 234.18 80.62
  C 218.63 65.34 203.66 50.41 189.29 35.84
  C 188.55 35.10 188.53 34.51 188.02 33.69
  C 187.76 33.28 187.41 33.15 186.97 33.28
  C 186.62 33.38 186.43 33.61 186.38 33.97
  C 185.95 37.14 185.76 40.32 185.81 43.51
  C 186.00 56.83 186.07 70.16 186.02 83.49
  C 186.01 83.84 186.18 84.01 186.53 84.01
  C 200.94 84.04 216.19 84.06 232.29 84.06
  C 233.58 84.06 234.78 83.64 236.06 83.54
  C 236.49 83.51 236.74 83.28 236.82 82.87
  C 236.88 82.56 236.79 82.29 236.56 82.06
  C 235.86 81.36 235.02 81.45 234.18 80.62
  Z"
/>
<rect fill="#818d93" x="90.00" y="132.00" width="120.00" height="12.00" rx="0.69"/>
<rect fill="#818d93" x="90.01" y="168.00" width="95.98" height="12.00" rx="0.66"/>
<rect fill="#818d93" x="90.00" y="204.00" width="120.00" height="12.00" rx="0.70"/>
</svg>
