<?xml version="1.0" encoding="UTF-8" standalone="no"?>
<!DOCTYPE svg PUBLIC "-//W3C//DTD SVG 1.1//EN" "http://www.w3.org/Graphics/SVG/1.1/DTD/svg11.dtd">
<svg xmlns="http://www.w3.org/2000/svg" version="1.1" viewBox="0.00 0.00 300.00 300.00">
<g stroke-width="2.20" fill="none" stroke-linecap="butt">
<path stroke="#838e97" stroke-opacity="0.902" vector-effect="non-scaling-stroke" d="
  M 285.28 123.16
  C 284.68 127.60 285.51 130.00 287.76 130.37"
/>
<path stroke="#838e97" stroke-opacity="0.902" vector-effect="non-scaling-stroke" d="
  M 172.22 261.30
  L 125.88 261.29"
/>
<path stroke="#838e97" stroke-opacity="0.902" vector-effect="non-scaling-stroke" d="
  M 124.07 26.61
  C 127.88 27.08 129.89 26.45 130.09 24.70"
/>
<path stroke="#838e97" stroke-opacity="0.902" vector-effect="non-scaling-stroke" d="
  M 134.87 36.30
  C 131.84 36.09 130.00 36.60 129.34 37.83"
/>
<path stroke="#768186" stroke-opacity="0.569" vector-effect="non-scaling-stroke" d="
  M 127.27 249.48
  C 128.22 249.76 128.90 250.26 129.29 250.97
  C 129.45 251.26 129.69 251.41 130.02 251.43
  C 142.77 252.27 155.50 252.30 168.22 251.51
  C 168.55 251.49 168.84 251.37 169.08 251.15
  C 169.81 250.46 170.84 249.88 172.17 249.39"
/>
<path stroke="#818d94" stroke-opacity="0.702" vector-effect="non-scaling-stroke" d="
  M 275.89 132.25
  C 276.11 129.69 275.31 127.65 273.50 126.13"
/>
<path stroke="#818d94" stroke-opacity="0.702" vector-effect="non-scaling-stroke" d="
  M 146.99 150.13
  C 147.15 150.99 147.13 151.75 146.93 152.42
  C 146.82 152.76 146.59 152.93 146.24 152.93
  L 144.15 152.93"
/>
<path stroke="#818d94" stroke-opacity="0.702" vector-effect="non-scaling-stroke" d="
  M 153.06 150.12
  C 152.86 150.93 152.84 151.69 153.01 152.39
  C 153.10 152.74 153.32 152.92 153.68 152.92
  L 155.91 152.94"
/>
<path stroke="#818d94" stroke-opacity="0.702" vector-effect="non-scaling-stroke" d="
  M 155.91 152.94
  L 156.24 156.17"
/>
<path stroke="#838e97" stroke-opacity="0.902" vector-effect="non-scaling-stroke" d="
  M 156.24 156.17
  L 156.16 161.74"
/>
<path stroke="#768186" stroke-opacity="0.569" vector-effect="non-scaling-stroke" d="
  M 156.16 161.74
  L 155.93 162.18"
/>
<path stroke="#838e97" stroke-opacity="0.902" vector-effect="non-scaling-stroke" d="
  M 155.93 162.18
  C 155.38 161.99 154.73 161.98 153.96 162.14
  C 153.62 162.21 153.45 162.42 153.44 162.77
  L 153.22 173.84"
/>
<path stroke="#818d94" stroke-opacity="0.702" vector-effect="non-scaling-stroke" d="
  M 153.22 173.84
  C 152.85 174.68 152.85 175.56 153.24 176.49"
/>
<path stroke="#768186" stroke-opacity="0.569" vector-effect="non-scaling-stroke" d="
  M 152.53 177.07
  L 147.29 177.06"
/>
<path stroke="#818d94" stroke-opacity="0.702" vector-effect="non-scaling-stroke" d="
  M 146.76 176.72
  C 147.13 175.80 147.16 174.84 146.83 173.85"
/>
<path stroke="#838e97" stroke-opacity="0.902" vector-effect="non-scaling-stroke" d="
  M 146.83 173.85
  L 146.86 165.62
  C 146.86 165.27 146.69 165.06 146.34 165.00
  C 145.69 164.88 144.93 164.98 144.07 165.30"
/>
<path stroke="#838e97" stroke-opacity="0.902" vector-effect="non-scaling-stroke" d="
  M 143.82 161.74
  C 144.08 160.03 144.03 158.30 143.67 156.55"
/>
<path stroke="#818d94" stroke-opacity="0.702" vector-effect="non-scaling-stroke" d="
  M 143.67 156.55
  C 144.09 155.48 144.13 154.42 143.79 153.36"
/>
</g>
<path fill="#818d93" d="
  M 285.28 123.16
  C 284.68 127.60 285.51 130.00 287.76 130.37
  C 287.97 135.94 287.98 143.56 287.80 153.25
  C 287.75 155.72 287.49 157.92 287.02 159.83
  C 286.23 163.04 285.83 164.67 285.82 164.73
  C 284.01 174.30 281.00 183.26 276.77 191.59
  C 258.80 227.00 223.90 251.10 185.51 259.96
  C 181.22 260.95 176.79 261.40 172.22 261.30
  L 125.88 261.29
  C 123.54 261.42 121.37 261.29 119.36 260.90
  C 118.27 260.69 117.25 260.68 116.30 260.88
  C 115.29 261.09 114.42 261.57 113.68 262.33
  C 111.66 264.39 109.58 266.27 107.43 267.98
  C 100.07 273.82 91.52 279.52 82.89 282.71
  C 71.05 287.09 58.73 288.79 45.94 287.82
  C 45.07 287.75 44.19 287.60 43.30 287.35
  C 42.67 287.17 42.67 287.03 43.32 286.92
  C 43.43 286.90 43.53 286.87 43.62 286.83
  C 43.84 286.72 44.02 286.57 44.16 286.38
  C 53.85 273.17 61.97 258.36 65.38 242.33
  C 65.90 239.88 65.17 237.94 63.18 236.51
  C 54.73 230.42 46.83 223.26 39.48 215.02
  C 29.11 203.41 21.42 189.90 16.39 174.49
  C 15.57 171.96 15.02 169.52 14.73 167.15
  C 14.29 163.54 12.67 160.38 12.41 156.71
  C 11.92 149.76 11.88 142.31 12.29 134.37
  C 12.44 131.40 12.91 128.39 13.69 125.34
  C 14.73 121.25 15.19 117.01 16.50 112.99
  C 20.54 100.58 25.88 89.90 32.53 80.95
  C 48.94 58.87 70.24 43.01 96.45 33.37
  C 102.12 31.28 108.27 29.42 114.92 27.78
  C 118.01 27.02 120.97 27.03 124.07 26.61
  C 127.88 27.08 129.89 26.45 130.09 24.70
  C 141.74 23.91 153.46 23.78 165.25 24.33
  C 168.25 24.47 171.03 24.71 173.59 25.05
  C 173.64 25.06 173.64 25.06 173.59 25.07
  C 170.99 25.52 167.96 25.81 164.49 25.93
  C 164.36 25.94 164.25 26.00 164.18 26.11
  C 164.06 26.31 164.12 26.40 164.35 26.37
  C 164.92 26.31 165.30 26.13 165.90 26.16
  C 172.27 26.40 177.98 26.79 183.04 27.32
  C 185.61 27.59 188.26 28.64 190.80 29.31
  C 233.31 40.55 270.71 71.15 283.85 113.91
  C 284.70 116.70 285.18 119.79 285.28 123.16
  Z
  M 134.87 36.30
  C 131.84 36.09 130.00 36.60 129.34 37.83
  C 126.93 38.22 124.45 38.62 121.88 39.01
  C 119.34 39.40 116.85 39.95 114.42 40.66
  C 109.44 42.10 104.66 43.24 99.59 45.22
  C 95.66 46.75 92.10 48.26 88.91 49.73
  C 80.08 53.82 71.51 59.23 63.18 65.96
  C 46.40 79.55 34.83 96.22 28.46 115.98
  C 27.19 119.92 26.68 123.61 25.76 127.54
  C 24.00 135.06 23.75 142.50 24.20 150.25
  C 24.46 154.68 25.82 158.98 26.51 163.33
  C 27.01 166.44 27.79 169.56 28.85 172.69
  C 34.86 190.32 44.94 205.33 59.11 217.71
  C 64.89 222.76 70.77 227.25 76.76 231.19
  C 77.52 231.69 78.01 232.53 78.07 233.44
  C 78.32 237.46 78.06 241.34 77.27 245.08
  C 75.33 254.25 72.01 263.23 67.32 272.02
  C 66.87 272.86 66.83 273.70 67.21 274.54
  C 67.38 274.90 67.65 275.02 68.03 274.89
  C 73.64 272.99 79.65 271.53 84.79 268.74
  C 94.64 263.41 102.82 255.87 110.90 247.83
  C 111.81 246.92 113.01 246.87 114.19 247.14
  C 115.37 247.40 116.58 247.89 117.81 248.61
  C 118.06 248.75 118.34 248.84 118.63 248.86
  L 127.27 249.48
  C 128.22 249.76 128.90 250.26 129.29 250.97
  C 129.45 251.26 129.69 251.41 130.02 251.43
  C 142.77 252.27 155.50 252.30 168.22 251.51
  C 168.55 251.49 168.84 251.37 169.08 251.15
  C 169.81 250.46 170.84 249.88 172.17 249.39
  C 175.70 249.44 178.23 249.26 179.76 248.86
  C 182.91 248.04 186.10 247.19 189.33 246.30
  C 209.90 240.66 227.82 230.73 243.07 216.52
  C 253.01 207.26 261.91 194.99 267.61 182.10
  C 269.92 176.89 271.51 172.40 272.38 168.65
  C 273.28 164.80 274.17 161.01 275.04 157.27
  C 275.64 154.71 275.95 152.06 275.96 149.33
  C 275.99 143.65 275.97 137.96 275.89 132.25
  C 276.11 129.69 275.31 127.65 273.50 126.13
  C 273.17 123.74 273.18 121.45 272.48 119.10
  C 270.53 112.57 268.22 106.66 265.55 101.38
  C 257.36 85.16 245.38 71.54 229.62 60.53
  C 217.91 52.35 205.85 46.42 193.44 42.75
  C 190.45 41.87 187.38 40.98 184.21 40.09
  C 181.77 39.40 179.37 38.96 177.00 38.76
  C 173.25 38.45 170.59 38.03 169.01 37.50
  C 166.60 36.69 164.52 36.24 162.75 36.17
  C 154.72 35.84 145.42 35.88 134.87 36.30
  Z"
/>
<path fill="#858f9b" fill-opacity="0.800" d="
  M 130.09 24.70
  C 129.89 26.45 127.88 27.08 124.07 26.61
  C 124.76 26.43 125.57 26.02 126.50 25.38
  C 127.31 24.82 128.50 24.59 130.09 24.70
  Z"
/>
<path fill="#858f9b" fill-opacity="0.800" d="
  M 134.87 36.30
  L 129.34 37.83
  C 130.00 36.60 131.84 36.09 134.87 36.30
  Z"
/>
<path fill="#818d93" d="
  M 98.15 126.54
  C 98.70 125.72 98.92 124.85 98.83 123.93
  C 98.76 123.30 99.30 122.78 99.92 122.88
  C 100.66 122.99 101.37 122.88 102.04 122.55
  C 102.31 122.42 102.43 122.11 102.32 121.84
  C 102.25 121.66 102.14 121.51 101.99 121.38
  C 101.64 121.08 101.82 120.50 102.28 120.45
  C 106.17 120.02 109.85 119.88 113.33 120.04
  C 113.76 120.06 113.97 119.86 113.98 119.44
  C 114.07 112.97 113.48 106.09 115.14 99.86
  C 117.82 89.79 123.45 82.20 132.04 77.08
  C 138.21 73.39 144.54 71.70 151.02 72.01
  C 168.48 72.84 181.92 85.10 185.33 102.32
  C 186.41 107.76 185.89 113.42 186.03 119.12
  C 186.05 119.65 186.50 120.07 187.03 120.04
  C 189.60 119.91 191.99 119.98 194.20 120.26
  C 195.57 120.43 197.15 121.02 198.96 122.04
  C 200.37 122.84 201.40 123.79 202.03 124.89
  C 203.28 127.06 203.92 129.32 203.93 131.69
  C 204.06 152.82 204.04 173.17 203.89 192.74
  C 203.87 195.72 202.80 198.48 200.68 201.01
  C 200.38 201.37 200.00 201.58 199.53 201.64
  C 198.78 201.74 198.20 202.11 197.78 202.75
  C 197.57 203.08 197.27 203.27 196.89 203.32
  C 193.62 203.80 189.93 204.04 185.84 204.03
  C 158.27 204.00 132.00 203.97 107.05 203.94
  C 105.18 203.94 103.47 203.67 101.90 203.14
  C 101.57 203.03 101.54 202.87 101.81 202.66
  L 102.18 202.37
  C 102.53 202.10 102.51 201.87 102.10 201.69
  C 101.37 201.37 100.61 201.20 99.84 201.19
  C 99.27 201.18 98.83 200.71 98.86 200.15
  C 98.90 199.36 98.71 198.63 98.30 197.94
  C 98.09 197.59 97.82 197.54 97.49 197.79
  L 97.27 197.96
  C 96.88 198.27 96.64 198.17 96.57 197.68
  C 96.25 195.59 96.08 193.44 96.06 191.23
  C 95.87 167.35 95.90 146.92 96.17 129.95
  C 96.18 128.83 96.33 127.63 96.60 126.35
  C 96.71 125.82 96.98 125.72 97.40 126.07
  C 97.53 126.18 97.61 126.30 97.65 126.45
  C 97.75 126.86 97.92 126.89 98.15 126.54
  Z
  M 126.64 119.97
  L 173.32 120.05
  C 173.71 120.05 174.02 119.74 174.02 119.35
  L 174.04 109.28
  C 174.06 95.37 163.37 84.07 150.16 84.05
  L 149.92 84.05
  C 136.71 84.03 125.98 95.29 125.96 109.20
  L 125.94 119.27
  C 125.94 119.65 126.25 119.97 126.64 119.97
  Z
  M 192.00 132.60
  C 192.00 132.27 191.73 132.00 191.40 132.00
  L 108.60 132.00
  C 108.27 132.00 108.00 132.27 108.00 132.60
  L 108.00 191.40
  C 108.00 191.73 108.27 192.00 108.60 192.00
  L 191.40 192.00
  C 191.73 192.00 192.00 191.73 192.00 191.40
  L 192.00 132.60
  Z"
/>
<path fill="#858f9b" fill-opacity="0.800" d="
  M 285.28 123.16
  L 285.71 124.95
  C 285.79 125.27 285.95 125.54 286.20 125.76
  C 287.36 126.75 287.88 128.29 287.76 130.37
  C 285.51 130.00 284.68 127.60 285.28 123.16
  Z"
/>
<path fill="#828c97" fill-opacity="0.400" d="
  M 273.50 126.13
  C 275.31 127.65 276.11 129.69 275.89 132.25
  L 274.04 132.10
  C 273.72 132.07 273.56 131.90 273.55 131.58
  L 273.50 126.13
  Z"
/>
<path fill="#828c97" fill-opacity="0.400" d="
  M 146.99 150.13
  C 147.15 150.99 147.13 151.75 146.93 152.42
  C 146.82 152.76 146.59 152.93 146.24 152.93
  L 144.15 152.93
  L 144.20 150.83
  C 144.21 150.47 144.39 150.25 144.75 150.17
  C 145.45 150.02 146.20 150.01 146.99 150.13
  Z"
/>
<path fill="#818d93" d="
  M 146.99 150.13
  L 153.06 150.12
  C 152.86 150.93 152.84 151.69 153.01 152.39
  C 153.10 152.74 153.32 152.92 153.68 152.92
  L 155.91 152.94
  L 156.24 156.17
  L 156.16 161.74
  L 155.93 162.18
  C 155.38 161.99 154.73 161.98 153.96 162.14
  C 153.62 162.21 153.45 162.42 153.44 162.77
  L 153.22 173.84
  C 152.85 174.68 152.85 175.56 153.24 176.49
  C 153.30 176.74 153.06 176.94 152.53 177.07
  L 147.29 177.06
  L 146.76 176.72
  C 147.13 175.80 147.16 174.84 146.83 173.85
  L 146.86 165.62
  C 146.86 165.27 146.69 165.06 146.34 165.00
  C 145.69 164.88 144.93 164.98 144.07 165.30
  L 143.82 161.74
  C 144.08 160.03 144.03 158.30 143.67 156.55
  C 144.09 155.48 144.13 154.42 143.79 153.36
  C 143.82 153.21 143.94 153.06 144.15 152.93
  L 146.24 152.93
  C 146.59 152.93 146.82 152.76 146.93 152.42
  C 147.13 151.75 147.15 150.99 146.99 150.13
  Z"
/>
<path fill="#828c97" fill-opacity="0.400" d="
  M 153.06 150.12
  L 155.03 150.10
  C 155.39 150.09 155.64 150.25 155.79 150.58
  C 156.04 151.15 156.08 151.94 155.91 152.94
  L 153.68 152.92
  C 153.32 152.92 153.10 152.74 153.01 152.39
  C 152.84 151.69 152.86 150.93 153.06 150.12
  Z"
/>
<path fill="#828c97" fill-opacity="0.400" d="
  M 143.79 153.36
  C 144.13 154.42 144.09 155.48 143.67 156.55
  C 142.89 156.42 142.07 156.06 141.21 155.46
  C 141.02 154.72 141.03 154.07 141.26 153.51
  C 141.39 153.20 141.63 153.04 141.98 153.04
  C 142.60 153.04 143.20 153.15 143.79 153.36
  Z"
/>
<path fill="#828c97" fill-opacity="0.400" d="
  M 155.91 152.94
  L 158.07 153.14
  C 158.40 153.17 158.62 153.33 158.73 153.64
  C 158.97 154.26 159.00 154.97 158.83 155.76
  L 156.24 156.17
  L 155.91 152.94
  Z"
/>
<path fill="#858f9b" fill-opacity="0.800" d="
  M 141.21 155.46
  C 142.07 156.06 142.89 156.42 143.67 156.55
  C 144.03 158.30 144.08 160.03 143.82 161.74
  C 142.97 162.01 142.23 162.10 141.62 162.01
  C 141.27 161.95 141.09 161.74 141.10 161.38
  L 141.21 155.46
  Z"
/>
<path fill="#858f9b" fill-opacity="0.800" d="
  M 158.83 155.76
  L 158.73 162.19
  L 156.16 161.74
  L 156.24 156.17
  L 158.83 155.76
  Z"
/>
<path fill="#858f9b" fill-opacity="0.800" d="
  M 155.93 162.18
  L 155.99 164.72
  L 155.84 174.35
  C 155.09 173.94 154.22 173.77 153.22 173.84
  L 153.44 162.77
  C 153.45 162.42 153.62 162.21 153.96 162.14
  C 154.73 161.98 155.38 161.99 155.93 162.18
  Z"
/>
<path fill="#24272b" fill-opacity="0.137" d="
  M 156.16 161.74
  L 158.73 162.19
  L 158.76 163.99
  C 158.77 164.34 158.61 164.57 158.28 164.68
  C 157.63 164.91 156.86 164.92 155.99 164.72
  L 155.93 162.18
  L 156.16 161.74
  Z"
/>
<path fill="#858f9b" fill-opacity="0.800" d="
  M 146.83 173.85
  L 144.18 174.11
  L 144.07 165.30
  C 144.93 164.98 145.69 164.88 146.34 165.00
  C 146.69 165.06 146.86 165.27 146.86 165.62
  L 146.83 173.85
  Z"
/>
<path fill="#828c97" fill-opacity="0.400" d="
  M 146.83 173.85
  C 147.16 174.84 147.13 175.80 146.76 176.72
  C 146.05 176.93 145.38 177.00 144.75 176.91
  C 144.40 176.86 144.20 176.67 144.15 176.32
  C 144.03 175.59 144.04 174.86 144.18 174.11
  L 146.83 173.85
  Z"
/>
<path fill="#828c97" fill-opacity="0.400" d="
  M 153.22 173.84
  C 154.22 173.77 155.09 173.94 155.84 174.35
  C 155.95 175.02 155.95 175.66 155.83 176.26
  C 155.76 176.60 155.56 176.80 155.21 176.86
  C 154.55 176.97 153.89 176.85 153.24 176.49
  C 152.85 175.56 152.85 174.68 153.22 173.84
  Z"
/>
<path fill="#24272b" fill-opacity="0.137" d="
  M 147.29 177.06
  L 152.53 177.07
  C 153.30 179.92 151.67 180.80 147.64 179.69
  C 147.30 179.60 147.14 179.37 147.16 179.02
  L 147.29 177.06
  Z"
/>
<path fill="#24272b" fill-opacity="0.137" d="
  M 172.17 249.39
  C 170.84 249.88 169.81 250.46 169.08 251.15
  C 168.84 251.37 168.55 251.49 168.22 251.51
  C 155.50 252.30 142.77 252.27 130.02 251.43
  C 129.69 251.41 129.45 251.26 129.29 250.97
  C 128.90 250.26 128.22 249.76 127.27 249.48
  C 133.55 249.29 139.82 249.16 146.07 249.10
  C 146.87 249.09 147.71 249.44 148.75 249.38
  C 155.86 248.95 163.66 248.96 172.17 249.39
  Z"
/>
<path fill="#858f9b" fill-opacity="0.800" d="
  M 172.22 261.30
  C 172.14 262.05 171.81 262.67 171.23 263.16
  C 170.81 263.51 170.19 263.70 169.36 263.73
  C 154.69 264.19 142.57 264.22 133.00 263.81
  C 130.85 263.72 128.48 262.88 125.88 261.29
  L 172.22 261.30
  Z"
/>
</svg>
