<?xml version="1.0" encoding="UTF-8" standalone="no"?>
<!DOCTYPE svg PUBLIC "-//W3C//DTD SVG 1.1//EN" "http://www.w3.org/Graphics/SVG/1.1/DTD/svg11.dtd">
<svg xmlns="http://www.w3.org/2000/svg" version="1.1" viewBox="0.00 0.00 300.00 300.00">
<g stroke-width="2.20" fill="none" stroke-linecap="butt">
<path stroke="#5e7078" stroke-opacity="0.804" vector-effect="non-scaling-stroke" d="
  M 21.67 53.31
  C 23.47 54.61 25.50 55.13 27.75 54.86
  C 27.86 54.85 27.92 54.90 27.93 55.02
  L 27.93 55.03
  C 27.94 55.14 27.88 55.21 27.76 55.22
  C 20.53 56.04 13.28 56.22 6.01 55.76"
/>
<path stroke="#5e6e75" stroke-opacity="0.537" vector-effect="non-scaling-stroke" d="
  M 6.01 55.76
  L 6.00 293.90"
/>
<path stroke="#5e7078" stroke-opacity="0.804" vector-effect="non-scaling-stroke" d="
  M 162.51 53.29
  C 162.58 53.88 162.56 54.38 162.46 54.81
  C 162.37 55.19 162.14 55.45 161.78 55.59
  L 160.25 56.18
  C 159.94 56.30 159.76 56.53 159.73 56.87
  C 159.59 58.31 158.68 59.30 157.00 59.84
  C 156.77 59.91 156.61 60.06 156.50 60.27
  C 156.19 60.90 156.13 61.53 156.32 62.17"
/>
<path stroke="#5e7078" stroke-opacity="0.804" vector-effect="non-scaling-stroke" d="
  M 30.69 78.06
  L 28.71 78.13
  C 28.38 78.14 28.21 78.31 28.21 78.65
  L 28.23 268.52
  C 28.23 268.89 28.41 269.07 28.78 269.08
  C 29.43 269.09 30.09 268.98 30.78 268.73"
/>
<path stroke="#5e7078" stroke-opacity="0.804" vector-effect="non-scaling-stroke" d="
  M 31.08 269.04
  C 30.80 269.99 30.78 270.81 31.02 271.51
  C 31.14 271.83 31.37 271.99 31.71 271.99
  L 221.55 271.99
  C 221.82 271.99 222.04 271.78 222.04 271.51
  L 222.04 269.04"
/>
<path stroke="#5e7078" stroke-opacity="0.804" vector-effect="non-scaling-stroke" d="
  M 246.66 270.28
  L 245.82 270.07
  C 245.41 269.97 245.25 269.71 245.32 269.29
  C 245.42 268.74 245.42 268.18 245.31 267.61
  C 245.30 267.52 245.24 267.48 245.15 267.47
  C 245.03 267.47 244.97 267.52 244.96 267.63
  C 244.39 276.36 244.14 285.14 244.21 293.98"
/>
<path stroke="#5e6e75" stroke-opacity="0.537" vector-effect="non-scaling-stroke" d="
  M 244.21 293.98
  L 6.25 293.98"
/>
</g>
<path fill="#5f6e75" d="
  M 171.84 77.70
  C 172.09 77.43 172.34 77.16 172.61 76.89
  C 174.19 75.28 175.86 73.65 177.61 72.00
  C 179.29 70.41 180.96 68.82 182.63 67.21
  C 190.48 59.61 198.13 51.19 205.68 44.20
  C 207.60 42.42 209.47 40.54 211.28 38.55
  C 213.71 35.89 216.41 33.60 218.77 30.93
  C 223.75 25.32 229.74 19.74 236.74 14.20
  C 239.22 12.24 241.69 10.58 244.15 9.23
  C 252.94 4.40 266.96 5.12 275.09 10.85
  C 278.10 12.98 281.39 15.72 284.94 19.05
  C 286.69 20.70 288.66 23.14 289.73 25.26
  C 295.52 36.68 295.28 48.18 289.01 59.75
  C 287.86 61.88 286.70 63.55 285.54 64.76
  C 272.01 78.79 258.95 91.91 246.36 104.12
  C 245.71 104.75 245.04 105.42 244.35 106.11
  C 228.06 122.62 210.65 140.15 192.10 158.70
  C 187.27 163.53 182.54 168.23 177.91 172.81
  C 173.03 177.64 168.26 182.56 163.59 187.59
  C 161.65 189.68 154.99 190.61 152.35 191.05
  C 147.53 191.86 142.89 193.40 137.97 193.95
  C 132.51 194.56 127.36 196.14 121.96 196.86
  C 118.25 197.36 114.33 198.10 110.22 199.09
  C 107.54 199.74 104.11 200.22 99.94 200.53
  C 99.51 200.56 99.32 200.37 99.36 199.94
  C 99.85 195.02 100.65 190.46 101.74 186.25
  C 103.24 180.46 103.31 175.07 104.99 169.20
  C 106.09 165.40 105.79 161.59 106.76 157.86
  C 107.72 154.21 108.51 150.55 109.12 146.88
  C 109.90 142.24 111.92 138.11 115.17 134.50
  C 119.11 130.13 123.09 126.06 127.10 122.30
  C 134.40 115.47 141.18 108.50 148.12 101.50
  C 149.18 100.43 153.20 96.53 160.18 89.81
  C 163.48 86.64 167.37 82.60 171.84 77.70
  Z
  M 184.53 132.14
  C 190.82 125.99 197.85 118.99 205.62 111.14
  C 209.77 106.93 214.46 102.19 219.68 96.92
  C 227.27 89.25 234.76 81.81 242.14 74.60
  C 249.21 67.68 255.56 61.03 262.37 53.99
  C 263.43 52.90 264.56 51.80 265.76 50.70
  C 268.14 48.51 270.84 44.33 270.07 40.83
  C 269.21 36.92 267.34 33.91 264.46 31.81
  C 262.30 30.23 260.24 29.50 258.29 29.61
  C 255.70 29.76 253.45 30.75 251.54 32.59
  C 237.36 46.24 223.45 60.03 209.82 73.98
  C 207.59 76.27 203.90 79.52 201.09 82.59
  C 193.79 90.56 184.17 99.29 175.91 107.74
  C 166.27 117.61 155.94 127.36 146.43 137.26
  C 142.41 141.44 138.54 145.45 134.83 149.30
  C 132.33 151.89 131.19 157.61 130.97 161.21
  C 130.79 164.10 130.02 166.85 129.59 169.74
  C 129.50 170.34 130.08 170.83 130.66 170.64
  C 133.57 169.69 136.40 169.16 139.17 169.05
  C 143.75 168.85 149.57 167.17 152.71 163.51
  C 153.74 162.32 154.81 161.22 155.93 160.22
  C 165.92 151.32 175.42 141.06 184.53 132.14
  Z"
/>
<path fill="#5c727e" fill-opacity="0.604" d="
  M 21.67 53.31
  C 23.47 54.61 25.50 55.13 27.75 54.86
  C 27.86 54.85 27.92 54.90 27.93 55.02
  L 27.93 55.03
  C 27.94 55.14 27.88 55.21 27.76 55.22
  C 20.53 56.04 13.28 56.22 6.01 55.76
  L 5.99 53.15
  L 21.67 53.31
  Z"
/>
<path fill="#576d73" fill-opacity="0.075" d="
  M 5.99 53.15
  L 6.01 55.76
  L 6.00 293.90
  C 5.15 293.97 4.40 293.92 3.77 293.73
  C 3.44 293.63 3.26 293.41 3.22 293.08
  C 3.12 292.19 3.07 291.30 3.07 290.41
  C 3.04 211.92 3.04 133.23 3.08 54.36
  C 3.08 53.73 3.58 53.21 4.21 53.20
  L 5.99 53.15
  Z"
/>
<path fill="#5f6e75" d="
  M 21.67 53.31
  L 162.51 53.29
  C 162.58 53.88 162.56 54.38 162.46 54.81
  C 162.37 55.19 162.14 55.45 161.78 55.59
  L 160.25 56.18
  C 159.94 56.30 159.76 56.53 159.73 56.87
  C 159.59 58.31 158.68 59.30 157.00 59.84
  C 156.77 59.91 156.61 60.06 156.50 60.27
  C 156.19 60.90 156.13 61.53 156.32 62.17
  L 142.38 76.21
  C 141.83 76.77 141.11 77.14 140.33 77.28
  C 139.05 77.50 137.73 77.68 136.36 77.83
  C 134.70 78.02 133.19 78.11 131.83 78.10
  C 98.12 77.84 64.41 77.83 30.69 78.06
  L 28.71 78.13
  C 28.38 78.14 28.21 78.31 28.21 78.65
  L 28.23 268.52
  C 28.23 268.89 28.41 269.07 28.78 269.08
  C 29.43 269.09 30.09 268.98 30.78 268.73
  C 31.03 269.15 31.13 269.25 31.08 269.04
  C 30.80 269.99 30.78 270.81 31.02 271.51
  C 31.14 271.83 31.37 271.99 31.71 271.99
  L 221.55 271.99
  C 221.82 271.99 222.04 271.78 222.04 271.51
  L 222.04 269.04
  C 222.09 217.65 222.08 184.22 222.03 168.75
  C 222.02 166.60 222.08 164.41 222.21 162.18
  C 222.31 160.49 222.87 158.99 223.88 157.66
  C 225.01 156.19 226.10 154.94 227.16 153.91
  C 230.27 150.90 233.46 147.98 236.74 145.17
  C 240.07 142.32 242.68 139.29 245.75 136.40
  C 246.07 136.09 246.23 136.16 246.23 136.61
  L 246.66 270.28
  L 245.82 270.07
  C 245.41 269.97 245.25 269.71 245.32 269.29
  C 245.42 268.74 245.42 268.18 245.31 267.61
  C 245.30 267.52 245.24 267.48 245.15 267.47
  C 245.03 267.47 244.97 267.52 244.96 267.63
  C 244.39 276.36 244.14 285.14 244.21 293.98
  L 6.25 293.98
  C 6.16 293.95 6.08 293.93 6.00 293.90
  L 6.01 55.76
  C 13.28 56.22 20.53 56.04 27.76 55.22
  C 27.88 55.21 27.94 55.14 27.93 55.03
  L 27.93 55.02
  C 27.92 54.90 27.86 54.85 27.75 54.86
  C 25.50 55.13 23.47 54.61 21.67 53.31
  Z"
/>
<path fill="#5c727e" fill-opacity="0.604" d="
  M 162.51 53.29
  C 163.40 53.02 164.23 53.03 164.99 53.33
  C 165.32 53.46 165.36 53.64 165.10 53.89
  L 156.32 62.17
  C 156.13 61.53 156.19 60.90 156.50 60.27
  C 156.61 60.06 156.77 59.91 157.00 59.84
  C 158.68 59.30 159.59 58.31 159.73 56.87
  C 159.76 56.53 159.94 56.30 160.25 56.18
  L 161.78 55.59
  C 162.14 55.45 162.37 55.19 162.46 54.81
  C 162.56 54.38 162.58 53.88 162.51 53.29
  Z"
/>
<path fill="#5c727e" fill-opacity="0.604" d="
  M 30.69 78.06
  C 30.72 78.36 30.76 78.60 30.79 78.79
  C 30.89 79.36 30.94 79.68 30.94 79.76
  C 30.86 142.51 30.84 205.25 30.89 268.00
  C 30.89 268.29 30.85 268.54 30.78 268.73
  C 30.09 268.98 29.43 269.09 28.78 269.08
  C 28.41 269.07 28.23 268.89 28.23 268.52
  L 28.21 78.65
  C 28.21 78.31 28.38 78.14 28.71 78.13
  L 30.69 78.06
  Z"
/>
<path fill="#5c727e" fill-opacity="0.604" d="
  M 246.66 270.28
  L 246.80 294.12
  C 246.08 293.89 245.22 293.85 244.21 293.98
  C 244.14 285.14 244.39 276.36 244.96 267.63
  C 244.97 267.52 245.03 267.47 245.15 267.47
  C 245.24 267.48 245.30 267.52 245.31 267.61
  C 245.42 268.18 245.42 268.74 245.32 269.29
  C 245.25 269.71 245.41 269.97 245.82 270.07
  L 246.66 270.28
  Z"
/>
<path fill="#5c727e" fill-opacity="0.604" d="
  M 31.08 269.04
  L 222.04 269.04
  L 222.04 271.51
  C 222.04 271.78 221.82 271.99 221.55 271.99
  L 31.71 271.99
  C 31.37 271.99 31.14 271.83 31.02 271.51
  C 30.78 270.81 30.80 269.99 31.08 269.04
  Z"
/>
<path fill="#576d73" fill-opacity="0.075" d="
  M 6.25 293.98
  L 244.21 293.98
  C 245.22 293.85 246.08 293.89 246.80 294.12
  C 246.95 296.07 245.43 297.05 242.25 297.05
  C 163.84 297.06 85.36 297.07 6.83 297.06
  C 6.46 297.06 6.25 296.88 6.18 296.52
  C 6.06 295.79 6.08 294.95 6.25 293.98
  Z"
/>
</svg>
