<?xml version="1.0" encoding="UTF-8" standalone="no"?>
<!DOCTYPE svg PUBLIC "-//W3C//DTD SVG 1.1//EN" "http://www.w3.org/Graphics/SVG/1.1/DTD/svg11.dtd">
<svg xmlns="http://www.w3.org/2000/svg" version="1.1" viewBox="0.00 0.00 300.00 300.00">
<path fill="#08202c" d="
  M 62.79 19.56
  C 62.27 19.30 61.75 19.23 61.23 19.36
  C 60.96 19.43 60.77 19.33 60.66 19.08
  C 60.63 19.00 60.64 18.92 60.70 18.83
  C 60.78 18.73 60.88 18.70 61.00 18.74
  C 61.70 18.99 62.37 18.91 63.00 18.52
  C 63.30 18.33 63.63 18.24 63.98 18.23
  C 64.95 18.20 65.90 18.18 66.82 18.17
  C 122.29 17.92 178.16 17.89 234.43 18.10
  C 235.52 18.10 236.46 18.27 237.26 18.62
  C 237.73 18.81 237.81 19.11 237.52 19.52
  C 237.27 19.87 237.30 20.17 237.61 20.43
  C 237.97 20.72 238.31 20.70 238.62 20.36
  C 238.95 19.99 238.98 19.61 238.70 19.22
  C 238.50 18.94 238.57 18.80 238.91 18.81
  C 239.00 18.81 239.08 18.86 239.14 18.96
  C 239.20 19.05 239.19 19.12 239.11 19.19
  C 238.92 19.36 238.83 19.56 238.86 19.79
  C 238.88 19.93 238.93 20.06 239.02 20.18
  C 239.63 21.05 239.93 22.33 239.94 24.00
  C 239.97 31.75 239.99 39.47 240.00 47.18
  C 240.01 47.62 240.36 47.98 240.80 47.98
  C 243.05 47.97 245.46 48.02 248.01 48.12
  C 248.32 48.13 248.61 48.20 248.87 48.31
  C 249.29 48.51 249.38 48.82 249.13 49.24
  C 248.85 49.72 248.97 50.33 249.41 50.66
  C 249.82 50.97 250.24 51.01 250.69 50.77
  C 251.26 50.47 251.94 50.88 251.94 51.52
  L 252.00 76.97
  C 252.00 77.51 252.43 77.95 252.97 77.96
  L 260.58 78.12
  C 261.23 78.13 261.63 78.83 261.32 79.40
  L 261.17 79.67
  C 261.01 79.96 261.06 80.33 261.31 80.56
  C 261.82 81.02 262.24 81.10 262.58 80.79
  C 263.12 80.30 263.99 80.74 263.99 81.50
  L 263.99 172.71
  C 263.99 173.39 264.53 173.94 265.21 173.95
  L 278.67 174.11
  C 278.87 174.11 279.06 174.21 279.18 174.37
  C 279.57 174.88 279.58 175.33 279.23 175.71
  C 279.07 175.88 279.08 176.15 279.25 176.32
  C 279.49 176.55 279.75 176.71 280.03 176.78
  C 280.26 176.84 280.49 176.70 280.55 176.48
  C 280.60 176.31 280.69 176.21 280.84 176.18
  C 280.96 176.15 281.09 176.21 281.15 176.33
  C 281.69 177.39 281.96 178.49 281.97 179.62
  C 281.98 208.79 282.00 238.08 282.03 267.47
  C 282.04 272.48 281.77 276.88 281.24 280.66
  C 281.17 281.16 280.92 281.30 280.50 281.08
  C 280.46 281.05 280.42 281.04 280.37 281.04
  C 280.14 281.03 279.92 281.07 279.71 281.17
  C 278.66 281.69 277.42 281.95 276.00 281.95
  C 191.91 282.00 107.04 282.01 21.38 281.98
  C 21.00 281.98 20.74 281.58 20.90 281.24
  C 21.19 280.61 21.22 280.01 21.01 279.43
  C 20.89 279.10 20.65 278.92 20.30 278.89
  C 19.79 278.86 19.30 278.92 18.85 279.06
  C 18.33 279.22 18.07 279.03 18.07 278.49
  C 17.93 243.43 17.96 210.06 18.15 178.37
  C 18.15 177.75 18.31 177.15 18.64 176.58
  C 18.75 176.38 19.02 176.34 19.18 176.50
  C 19.73 177.05 20.30 176.99 20.88 176.33
  C 21.18 175.99 21.13 175.72 20.72 175.51
  L 20.36 175.32
  C 19.97 175.12 19.97 174.93 20.37 174.75
  C 21.06 174.44 21.42 174.11 22.25 174.09
  C 26.83 173.98 31.21 173.96 35.40 174.02
  C 35.82 174.03 36.03 173.82 36.03 173.40
  C 35.98 142.45 35.98 112.21 36.04 82.67
  C 36.04 82.01 36.21 81.37 36.56 80.74
  C 36.81 80.27 37.08 80.27 37.36 80.72
  C 37.41 80.79 37.46 80.86 37.53 80.91
  C 37.80 81.12 38.06 81.11 38.31 80.88
  L 38.88 80.36
  C 39.16 80.11 39.17 79.84 38.92 79.57
  C 38.81 79.46 38.69 79.38 38.55 79.35
  C 38.10 79.22 38.06 79.02 38.45 78.75
  C 40.18 77.52 45.43 78.00 47.45 78.01
  C 47.74 78.02 47.97 77.78 47.97 77.49
  L 48.06 51.54
  C 48.06 51.30 48.15 51.07 48.31 50.88
  C 48.83 50.29 49.22 50.24 49.47 50.73
  C 49.60 50.98 49.92 51.05 50.15 50.89
  L 50.97 50.29
  C 51.19 50.14 51.21 49.96 51.04 49.75
  C 50.89 49.59 50.73 49.47 50.54 49.40
  C 50.11 49.23 50.08 49.01 50.46 48.74
  C 52.18 47.52 57.28 48.00 59.44 48.00
  C 59.79 48.00 59.96 47.82 59.96 47.47
  L 60.08 21.50
  C 60.08 20.75 60.92 20.31 61.52 20.73
  C 61.89 21.00 62.36 20.85 62.91 20.30
  C 63.22 20.00 63.18 19.75 62.79 19.56
  Z
  M 228.01 30.84
  C 228.01 30.38 227.63 30.00 227.17 30.00
  L 72.83 30.00
  C 72.37 30.00 71.99 30.38 71.99 30.84
  L 71.99 47.16
  C 71.99 47.62 72.37 48.00 72.83 48.00
  L 227.17 48.00
  C 227.63 48.00 228.01 47.62 228.01 47.16
  L 228.01 30.84
  Z
  M 240.01 60.72
  C 240.01 60.32 239.69 60.00 239.29 60.00
  L 60.71 60.00
  C 60.31 60.00 59.99 60.32 59.99 60.72
  L 59.99 77.26
  C 59.99 77.66 60.31 77.98 60.71 77.98
  L 239.29 77.98
  C 239.69 77.98 240.01 77.66 240.01 77.26
  L 240.01 60.72
  Z
  M 182.36 175.12
  C 182.71 174.73 183.17 174.49 183.76 174.40
  C 185.43 174.16 187.04 174.04 188.59 174.04
  C 208.44 173.98 229.38 173.97 251.39 174.01
  C 251.73 174.01 252.00 173.74 252.00 173.41
  L 252.00 90.75
  C 252.00 90.33 251.66 89.99 251.25 89.99
  L 48.75 89.99
  C 48.33 89.99 47.99 90.33 47.99 90.75
  L 47.99 173.24
  C 47.99 173.67 48.33 174.01 48.76 174.01
  C 69.12 173.98 90.79 173.99 113.76 174.05
  C 117.50 174.06 119.43 176.06 119.74 179.60
  C 120.27 185.56 121.76 190.72 124.21 195.09
  C 134.31 213.05 159.41 214.90 172.67 199.56
  C 177.57 193.91 179.76 186.27 180.39 178.78
  C 180.47 177.87 180.78 177.06 181.31 176.37
  C 181.65 175.94 182.00 175.53 182.36 175.12
  Z
  M 117.97 206.10
  C 113.92 200.96 110.36 194.01 109.82 187.23
  C 109.80 186.94 109.62 186.69 109.35 186.58
  C 108.34 186.16 107.31 185.95 106.25 185.95
  C 80.41 186.02 55.27 186.03 30.84 185.98
  C 30.71 185.98 30.59 186.01 30.48 186.06
  C 30.16 186.23 30.00 186.49 30.00 186.84
  L 30.03 269.15
  C 30.03 269.73 30.32 270.02 30.90 270.02
  L 269.25 269.99
  C 269.68 269.99 270.02 269.65 270.02 269.22
  L 270.03 186.76
  C 270.03 186.32 269.67 185.97 269.23 185.97
  C 244.30 186.01 219.12 185.99 193.69 185.91
  C 192.58 185.90 191.56 186.14 190.61 186.62
  C 190.32 186.76 190.17 186.99 190.16 187.31
  C 190.00 190.14 189.30 192.98 188.07 195.83
  C 183.52 206.32 176.34 213.85 166.53 218.42
  C 162.16 220.45 157.80 221.60 153.45 221.86
  C 148.27 222.17 143.87 221.83 140.26 220.86
  C 131.22 218.41 123.79 213.49 117.97 206.10
  Z
  M 279.63 279.35
  C 279.35 279.76 279.37 280.15 279.70 280.51
  C 279.91 280.74 280.28 280.69 280.42 280.41
  C 280.66 279.96 280.59 279.57 280.21 279.26
  C 280.03 279.11 279.76 279.16 279.63 279.35
  Z"
/>
</svg>
