<?xml version="1.0" encoding="UTF-8" standalone="no"?>
<!DOCTYPE svg PUBLIC "-//W3C//DTD SVG 1.1//EN" "http://www.w3.org/Graphics/SVG/1.1/DTD/svg11.dtd">
<svg xmlns="http://www.w3.org/2000/svg" version="1.1" viewBox="0.00 0.00 100.00 100.00">
<path fill="#08202c" d="
  M 88.50 87.85
  C 89.54 88.18 90.59 87.88 91.60 88.37
  C 95.56 90.28 94.27 95.98 89.79 95.98
  C 62.37 95.99 35.96 95.99 10.55 96.00
  C 5.88 96.00 4.20 90.54 8.41 88.37
  C 8.72 88.21 9.06 88.12 9.41 88.09
  L 11.42 87.95
  C 11.83 87.92 12.04 87.69 12.04 87.28
  L 12.00 5.93
  C 12.00 4.47 13.54 3.53 14.84 4.18
  L 17.50 5.52
  C 17.83 5.69 18.17 5.69 18.51 5.52
  L 21.01 4.25
  C 21.39 4.05 21.79 4.00 22.21 4.09
  C 23.28 4.32 24.32 4.80 25.33 5.51
  C 25.63 5.72 26.02 5.75 26.35 5.58
  L 29.03 4.24
  C 29.41 4.05 29.85 3.99 30.26 4.09
  C 31.27 4.33 32.24 4.77 33.19 5.42
  C 33.62 5.71 34.07 5.74 34.53 5.50
  L 37.01 4.24
  C 37.39 4.05 37.79 4.00 38.21 4.09
  C 39.24 4.32 40.22 4.75 41.14 5.39
  C 41.56 5.68 42.10 5.72 42.55 5.49
  L 44.97 4.26
  C 45.36 4.06 45.82 4.00 46.25 4.10
  C 47.26 4.32 48.23 4.75 49.16 5.40
  C 49.57 5.69 50.09 5.73 50.53 5.50
  L 53.02 4.24
  C 53.38 4.06 53.79 4.00 54.18 4.08
  C 55.23 4.30 56.22 4.74 57.17 5.41
  C 57.57 5.69 58.09 5.72 58.52 5.50
  L 61.02 4.24
  C 61.39 4.05 61.82 3.99 62.23 4.09
  C 63.26 4.32 64.24 4.76 65.17 5.40
  C 65.58 5.68 66.10 5.72 66.54 5.49
  L 69.02 4.24
  C 69.39 4.05 69.81 4.00 70.21 4.08
  C 71.24 4.31 72.23 4.75 73.16 5.40
  C 73.57 5.68 74.10 5.72 74.54 5.49
  L 77.02 4.24
  C 77.38 4.05 77.80 4.00 78.20 4.08
  C 79.23 4.31 80.23 4.75 81.20 5.41
  C 81.53 5.63 81.95 5.68 82.33 5.54
  C 83.05 5.27 83.74 4.93 84.41 4.51
  C 85.84 3.62 88.01 4.07 88.01 6.00
  C 87.97 32.84 87.96 59.89 87.98 87.14
  C 87.98 87.47 88.19 87.75 88.50 87.85
  Z
  M 83.55 9.47
  C 81.67 10.42 80.28 9.51 78.73 8.58
  C 78.22 8.27 77.71 8.28 77.21 8.61
  C 76.24 9.25 75.24 9.68 74.22 9.90
  C 73.79 9.99 73.38 9.94 72.99 9.75
  L 70.52 8.49
  C 70.11 8.29 69.62 8.32 69.24 8.57
  C 68.29 9.22 67.31 9.66 66.32 9.88
  C 65.82 9.99 65.34 9.93 64.88 9.70
  L 62.52 8.49
  C 62.11 8.29 61.63 8.32 61.25 8.57
  C 60.26 9.25 59.23 9.70 58.15 9.92
  C 57.75 10.00 57.37 9.95 57.01 9.76
  L 54.50 8.49
  C 54.17 8.32 53.83 8.32 53.50 8.49
  L 51.31 9.61
  C 50.48 10.03 49.50 10.03 48.68 9.61
  L 46.64 8.56
  C 46.23 8.35 45.83 8.35 45.43 8.55
  L 42.65 9.92
  C 42.24 10.12 41.76 10.12 41.36 9.92
  L 38.37 8.44
  C 38.12 8.31 37.86 8.32 37.61 8.45
  L 35.14 9.70
  C 34.43 10.06 33.59 10.06 32.88 9.70
  L 30.50 8.50
  C 30.17 8.33 29.83 8.33 29.50 8.50
  L 27.12 9.71
  C 26.40 10.07 25.56 10.07 24.85 9.70
  L 22.62 8.56
  C 22.22 8.35 21.82 8.35 21.41 8.55
  L 18.96 9.78
  C 18.65 9.93 18.33 10.00 17.99 9.97
  C 17.54 9.93 17.13 9.80 16.76 9.58
  C 16.25 9.27 16.00 9.42 16.00 10.01
  L 15.99 91.00
  C 15.99 91.56 16.44 92.01 17.00 92.01
  L 83.40 91.99
  C 83.76 91.99 84.06 91.69 84.06 91.33
  L 84.01 9.76
  C 84.01 9.52 83.76 9.36 83.55 9.47
  Z"
/>
<rect fill="#08202c" x="23.76" y="22.00" width="34.22" height="3.98" rx="1.94"/>
<rect fill="#08202c" x="65.76" y="22.02" width="10.16" height="3.94" rx="1.88"/>
<rect fill="#08202c" x="-13.11" y="-1.97" transform="translate(36.87,35.98) rotate(0.2)" width="26.22" height="3.94" rx="1.92"/>
<rect fill="#08202c" x="65.77" y="34.02" width="10.12" height="3.94" rx="1.87"/>
<rect fill="#08202c" x="23.76" y="46.02" width="34.22" height="3.96" rx="1.94"/>
<rect fill="#08202c" x="-5.05" y="-1.96" transform="translate(70.82,47.99) rotate(-0.2)" width="10.10" height="3.92" rx="1.87"/>
<rect fill="#08202c" x="-13.11" y="-1.98" transform="translate(36.87,59.99) rotate(0.1)" width="26.22" height="3.96" rx="1.93"/>
<rect fill="#08202c" x="-5.05" y="-1.97" transform="translate(70.82,59.99) rotate(-0.4)" width="10.10" height="3.94" rx="1.87"/>
<circle fill="#08202c" cx="26.00" cy="72.00" r="1.97"/>
<circle fill="#08202c" cx="32.00" cy="72.00" r="1.97"/>
<circle fill="#08202c" cx="38.00" cy="72.00" r="1.97"/>
<circle fill="#08202c" cx="44.00" cy="72.00" r="1.97"/>
<circle fill="#08202c" cx="50.00" cy="72.00" r="1.97"/>
<circle fill="#08202c" cx="56.00" cy="72.00" r="1.97"/>
<circle fill="#08202c" cx="62.00" cy="72.00" r="1.97"/>
<circle fill="#08202c" cx="68.00" cy="71.99" r="1.96"/>
<circle fill="#08202c" cx="73.97" cy="72.00" r="1.94"/>
<rect fill="#08202c" x="-8.07" y="-1.88" transform="translate(67.85,81.97) rotate(0.1)" width="16.14" height="3.76" rx="1.70"/>
</svg>
