<?xml version="1.0" encoding="UTF-8" standalone="no"?>
<!DOCTYPE svg PUBLIC "-//W3C//DTD SVG 1.1//EN" "http://www.w3.org/Graphics/SVG/1.1/DTD/svg11.dtd">
<svg xmlns="http://www.w3.org/2000/svg" version="1.1" viewBox="0.00 0.00 300.00 300.00">
<path fill="#08202c" d="
  M 254.99 84.51
  C 255.74 85.26 256.45 85.98 257.13 86.67
  C 257.36 86.91 257.51 87.20 257.58 87.53
  C 257.87 88.92 258.02 90.37 258.02 91.87
  C 258.01 157.73 258.00 222.77 257.98 287.00
  C 257.98 287.55 257.54 287.99 256.99 287.99
  L 42.25 288.00
  C 42.11 288.00 42.00 287.89 42.00 287.75
  L 42.00 12.98
  C 42.00 12.44 42.43 12.01 42.97 12.01
  C 87.92 12.00 132.93 12.00 178.00 12.00
  C 181.33 12.00 183.86 12.88 185.60 14.64
  C 208.09 37.34 231.22 60.63 254.99 84.51
  Z
  M 174.91 95.99
  C 174.41 95.99 174.00 95.58 174.00 95.08
  L 174.00 24.90
  C 174.00 24.40 173.59 23.99 173.09 23.99
  L 54.90 23.99
  C 54.40 23.99 53.99 24.40 53.99 24.90
  L 54.01 275.09
  C 54.01 275.59 54.42 276.00 54.92 276.00
  L 245.09 276.00
  C 245.59 276.00 246.00 275.59 246.00 275.09
  L 246.00 96.88
  C 246.00 96.38 245.59 95.97 245.09 95.97
  L 174.91 95.99
  Z
  M 186.49 33.66
  C 185.97 36.38 185.73 39.16 185.77 42.00
  C 185.96 55.87 186.04 69.47 185.99 82.81
  C 185.99 83.48 186.54 84.03 187.21 84.02
  C 200.95 83.99 214.94 84.03 229.19 84.12
  C 231.42 84.13 233.73 83.94 236.10 83.54
  C 236.39 83.49 236.62 83.36 236.79 83.14
  C 236.95 82.93 236.98 82.70 236.89 82.43
  C 236.74 81.97 236.43 81.67 235.96 81.53
  C 234.93 81.22 234.36 80.86 233.60 80.09
  C 218.82 65.19 204.19 50.61 189.72 36.34
  C 189.14 35.77 188.68 34.99 188.49 34.21
  C 188.33 33.56 187.92 33.20 187.26 33.11
  C 186.83 33.06 186.58 33.24 186.49 33.66
  Z"
/>
<path fill="#08202c" d="
  M 203.77 153.16
  C 204.14 151.59 204.44 150.06 204.66 148.58
  C 205.02 146.15 205.94 143.95 207.41 141.98
  C 211.29 136.80 219.20 136.82 223.83 140.92
  C 225.84 142.69 227.53 145.51 227.97 148.19
  C 229.06 154.87 224.84 159.35 218.76 161.26
  C 216.41 162.00 214.84 162.47 212.96 164.34
  C 211.22 166.07 209.56 167.88 207.99 169.76
  C 199.68 179.71 191.97 189.39 184.84 198.80
  C 183.89 200.05 182.92 201.37 181.94 202.77
  C 180.85 204.32 180.21 205.81 180.02 207.25
  C 179.71 209.68 179.62 212.04 178.75 214.38
  C 176.58 220.21 172.14 222.67 165.43 221.74
  C 162.19 221.30 159.81 219.45 158.30 216.20
  C 157.06 213.53 156.26 211.01 155.91 208.64
  C 155.60 206.53 154.46 204.31 152.49 201.99
  C 140.80 188.14 131.13 177.23 123.48 169.28
  C 121.27 166.99 118.67 166.93 115.66 169.09
  C 113.79 170.44 111.76 172.95 109.75 174.75
  C 105.90 178.19 102.28 181.93 98.89 185.97
  C 97.50 187.62 96.48 189.39 96.02 191.47
  C 94.17 199.82 90.56 205.46 80.83 203.59
  C 75.45 202.55 71.99 197.28 72.01 192.01
  C 72.02 187.82 74.41 183.27 78.62 181.88
  C 80.09 181.40 81.25 180.66 82.81 180.48
  C 85.16 180.20 87.27 179.35 89.13 177.92
  C 94.91 173.47 100.49 167.77 105.86 160.82
  C 106.88 159.50 107.58 158.01 107.96 156.36
  C 109.27 150.72 111.67 144.96 118.23 144.12
  C 127.60 142.91 131.20 150.18 132.36 157.97
  C 132.55 159.24 133.29 161.05 134.06 162.08
  C 135.93 164.55 137.80 166.88 139.68 169.06
  C 146.35 176.79 153.27 184.53 160.44 192.28
  C 162.18 194.16 164.80 197.68 167.33 198.16
  C 168.62 198.41 169.97 197.67 171.39 195.95
  C 179.09 186.62 187.06 176.80 195.31 166.48
  C 197.62 163.58 199.62 160.25 201.80 157.21
  C 202.81 155.79 203.47 154.44 203.77 153.16
  Z"
/>
</svg>
