<?xml version="1.0" encoding="UTF-8" standalone="no"?>
<!DOCTYPE svg PUBLIC "-//W3C//DTD SVG 1.1//EN" "http://www.w3.org/Graphics/SVG/1.1/DTD/svg11.dtd">
<svg xmlns="http://www.w3.org/2000/svg" version="1.1" viewBox="0.00 0.00 300.00 300.00">
<path fill="#08202c" d="
  M 144.1429 125.7452
  C 144.16 135.79 136.03 143.95 125.9847 143.9669
  L 42.3048 144.1129
  C 32.26 144.13 24.10 136.00 24.0831 125.9547
  L 23.9371 42.2948
  C 23.92 32.25 32.05 24.09 42.0953 24.0731
  L 125.7752 23.9271
  C 135.82 23.91 143.98 32.04 143.9969 42.0853
  L 144.1429 125.7452
  Z
  M 132.00 41.17
  C 132.00 38.32 129.69 36.01 126.84 36.01
  L 41.20 36.02
  C 38.35 36.02 36.04 38.33 36.04 41.18
  L 35.99 126.83
  C 35.99 129.68 38.30 131.99 41.15 131.99
  L 126.80 131.97
  C 129.65 131.97 131.96 129.66 131.96 126.81
  L 132.00 41.17
  Z"
/>
<path fill="#08202c" d="
  M 276.00 125.92
  C 276.00 135.93 267.89 144.04 257.88 144.04
  L 174.10 144.04
  C 164.09 144.04 155.98 135.93 155.98 125.92
  L 155.98 42.14
  C 155.98 32.13 164.09 24.02 174.10 24.02
  L 257.88 24.02
  C 267.89 24.02 276.00 32.13 276.00 42.14
  L 276.00 125.92
  Z
  M 169.56 130.57
  C 169.91 130.99 170.35 131.27 170.88 131.41
  C 172.59 131.88 174.38 132.11 176.25 132.10
  C 201.34 132.04 226.25 132.00 251.00 131.99
  C 254.53 131.99 257.95 131.80 261.27 131.41
  C 262.43 131.28 263.34 130.36 263.44 129.20
  C 263.85 124.73 264.05 120.27 264.04 115.80
  C 263.99 93.15 263.98 68.69 263.99 42.44
  C 263.99 38.16 261.94 36.02 257.84 36.01
  C 232.29 35.98 206.08 35.98 179.23 36.03
  C 176.46 36.03 173.61 36.21 170.70 36.57
  C 169.58 36.71 168.71 37.60 168.60 38.72
  C 168.13 43.53 167.91 48.87 167.94 54.76
  C 168.03 77.94 168.26 101.55 167.98 125.43
  C 167.96 127.60 168.49 129.31 169.56 130.57
  Z"
/>
<path fill="#08202c" d="
  M 144.1430 257.7552
  C 144.16 267.78 136.05 275.92 126.0247 275.9368
  L 42.2648 276.0830
  C 32.24 276.10 24.10 267.99 24.0832 257.9647
  L 23.9370 174.2048
  C 23.92 164.18 32.03 156.04 42.0553 156.0232
  L 125.8152 155.8770
  C 135.84 155.86 143.98 163.97 143.9968 173.9953
  L 144.1430 257.7552
  Z
  M 131.97 173.17
  C 131.97 170.33 129.66 168.02 126.82 168.02
  L 41.16 168.02
  C 38.32 168.02 36.01 170.33 36.01 173.17
  L 36.01 258.83
  C 36.01 261.67 38.32 263.98 41.16 263.98
  L 126.82 263.98
  C 129.66 263.98 131.97 261.67 131.97 258.83
  L 131.97 173.17
  Z"
/>
<path fill="#08202c" d="
  M 276.0930 257.7552
  C 276.11 267.77 268.01 275.90 257.9947 275.9168
  L 174.2148 276.0630
  C 164.20 276.08 156.07 267.98 156.0532 257.9647
  L 155.9070 174.1848
  C 155.89 164.17 163.99 156.04 174.0053 156.0232
  L 257.7852 155.8770
  C 267.80 155.86 275.93 163.96 275.9468 173.9753
  L 276.0930 257.7552
  Z
  M 263.98 173.15
  C 263.98 170.31 261.68 168.01 258.84 168.01
  L 173.16 168.01
  C 170.32 168.01 168.02 170.31 168.02 173.15
  L 168.02 258.83
  C 168.02 261.67 170.32 263.97 173.16 263.97
  L 258.84 263.97
  C 261.68 263.97 263.98 261.67 263.98 258.83
  L 263.98 173.15
  Z"
/>
</svg>
