<?xml version="1.0" encoding="UTF-8" standalone="no"?>
<!DOCTYPE svg PUBLIC "-//W3C//DTD SVG 1.1//EN" "http://www.w3.org/Graphics/SVG/1.1/DTD/svg11.dtd">
<svg xmlns="http://www.w3.org/2000/svg" version="1.1" viewBox="0.00 0.00 300.00 300.00">
<g stroke-width="2.20" fill="none" stroke-linecap="butt">
<path stroke="#9ba3b6" stroke-opacity="0.882" vector-effect="non-scaling-stroke" d="
  M 278.06 72.66
  C 280.17 76.10 280.84 80.71 280.07 86.50
  C 280.04 86.79 279.88 86.96 279.59 87.02
  C 279.20 87.11 278.99 87.43 278.94 87.99
  C 278.42 94.19 278.16 100.24 278.15 106.14
  C 278.09 150.57 278.09 194.95 278.16 239.30
  C 278.17 244.68 278.63 250.37 278.28 255.69
  C 278.25 256.04 278.06 256.22 277.71 256.22
  L 206.05 256.06"
/>
<path stroke="#99a2b3" stroke-opacity="0.800" vector-effect="non-scaling-stroke" d="
  M 206.05 256.06
  L 205.90 237.98"
/>
<path stroke="#8991a0" stroke-opacity="0.600" vector-effect="non-scaling-stroke" d="
  M 205.90 237.98
  L 258.42 237.87
  C 258.77 237.87 258.95 237.69 258.95 237.33
  C 258.96 187.88 258.96 138.48 258.95 89.15
  C 258.95 88.27 258.54 87.71 257.73 87.48
  C 257.42 87.39 257.15 87.21 256.94 86.96
  C 256.31 86.19 255.45 85.49 254.37 84.86"
/>
<path stroke="#99a4b5" stroke-opacity="0.961" vector-effect="non-scaling-stroke" d="
  M 77.98 106.74
  C 76.23 106.86 74.78 107.24 73.61 107.89
  C 71.81 108.89 70.20 109.49 68.77 109.68
  C 66.47 109.99 65.13 108.57 65.29 106.35
  C 65.48 103.78 65.60 101.21 65.66 98.65
  C 65.71 96.22 65.67 93.65 65.52 90.96
  C 65.19 84.70 65.17 78.59 65.48 72.64"
/>
<path stroke="#99a4b5" stroke-opacity="0.961" vector-effect="non-scaling-stroke" d="
  M 193.97 158.78
  C 193.52 158.49 192.98 158.29 192.36 158.18
  C 192.09 158.13 192.07 158.04 192.31 157.89
  C 192.43 157.81 192.43 157.72 192.32 157.63
  C 192.00 157.38 191.82 157.45 191.79 157.86
  C 191.67 159.31 191.08 160.47 191.07 161.91
  C 191.00 200.60 191.00 239.35 191.06 278.17"
/>
<path stroke="#9ba3b6" stroke-opacity="0.882" vector-effect="non-scaling-stroke" d="
  M 191.06 278.17
  L 22.38 278.30"
/>
<path stroke="#99a2b3" stroke-opacity="0.800" vector-effect="non-scaling-stroke" d="
  M 22.38 278.30
  C 22.12 278.19 21.89 278.00 21.68 277.74"
/>
<path stroke="#9ba3b6" stroke-opacity="0.882" vector-effect="non-scaling-stroke" d="
  M 21.68 277.74
  C 21.87 277.17 21.97 276.75 21.98 276.50
  C 22.07 250.16 22.06 217.08 21.96 177.26
  C 21.95 172.22 21.61 167.28 21.09 162.18
  C 20.70 158.35 20.84 154.72 21.51 151.31
  C 21.58 150.98 21.71 150.69 21.92 150.42
  C 22.21 150.05 22.41 149.63 22.54 149.17
  C 22.62 148.86 22.80 148.59 23.04 148.38
  L 26.95 145.03"
/>
<path stroke="#8991a0" stroke-opacity="0.600" vector-effect="non-scaling-stroke" d="
  M 88.73 115.99
  C 89.74 115.86 90.47 115.48 90.92 114.87"
/>
<path stroke="#8991a0" stroke-opacity="0.600" vector-effect="non-scaling-stroke" d="
  M 41.18 166.46
  L 41.11 258.36
  C 41.11 258.76 41.31 258.96 41.71 258.96
  L 171.26 258.97
  C 171.61 258.97 171.80 258.79 171.82 258.44
  L 171.97 255.79"
/>
<path stroke="#8991a0" stroke-opacity="0.600" vector-effect="non-scaling-stroke" d="
  M 171.63 162.76
  C 171.04 161.45 170.00 160.63 168.50 160.31"
/>
</g>
<path fill="#98a2b3" d="
  M 278.06 72.66
  C 280.17 76.10 280.84 80.71 280.07 86.50
  C 280.04 86.79 279.88 86.96 279.59 87.02
  C 279.20 87.11 278.99 87.43 278.94 87.99
  C 278.42 94.19 278.16 100.24 278.15 106.14
  C 278.09 150.57 278.09 194.95 278.16 239.30
  C 278.17 244.68 278.63 250.37 278.28 255.69
  C 278.25 256.04 278.06 256.22 277.71 256.22
  L 206.05 256.06
  L 205.90 237.98
  L 258.42 237.87
  C 258.77 237.87 258.95 237.69 258.95 237.33
  C 258.96 187.88 258.96 138.48 258.95 89.15
  C 258.95 88.27 258.54 87.71 257.73 87.48
  C 257.42 87.39 257.15 87.21 256.94 86.96
  C 256.31 86.19 255.45 85.49 254.37 84.86
  C 252.18 83.97 249.99 82.97 247.81 81.84
  C 244.90 80.35 242.75 79.28 241.35 78.65
  C 230.27 73.66 219.29 68.44 208.42 62.99
  C 203.63 60.59 199.18 57.66 194.30 55.36
  C 187.87 52.33 181.19 49.28 174.26 46.21
  C 172.55 45.46 170.90 45.50 169.31 46.34
  C 164.53 48.87 159.46 50.54 154.63 52.97
  C 144.76 57.94 135.88 62.99 125.42 67.97
  C 117.78 71.62 110.61 74.98 103.90 78.07
  C 97.65 80.95 91.75 84.23 85.69 87.43
  C 84.83 87.88 84.28 88.76 84.26 89.73
  L 83.92 103.00
  C 83.90 103.72 83.46 104.36 82.80 104.65
  L 77.98 106.74
  C 76.23 106.86 74.78 107.24 73.61 107.89
  C 71.81 108.89 70.20 109.49 68.77 109.68
  C 66.47 109.99 65.13 108.57 65.29 106.35
  C 65.48 103.78 65.60 101.21 65.66 98.65
  C 65.71 96.22 65.67 93.65 65.52 90.96
  C 65.19 84.70 65.17 78.59 65.48 72.64
  C 70.55 70.28 75.39 68.01 80.00 65.84
  C 82.58 64.63 85.96 62.88 90.13 60.59
  C 101.85 54.16 114.39 48.73 126.15 43.18
  C 132.18 40.33 138.13 37.33 144.00 34.18
  C 152.51 29.60 161.17 25.48 169.98 21.82
  C 171.31 21.26 172.58 21.25 173.78 21.78
  C 179.54 24.35 185.90 27.23 192.86 30.43
  C 199.69 33.58 205.98 37.55 212.67 40.77
  C 219.51 44.05 226.43 47.36 233.52 50.47
  C 239.57 53.14 245.50 56.05 251.31 59.22
  C 255.87 61.71 260.31 63.98 264.63 66.04
  C 268.97 68.11 273.45 70.32 278.06 72.66
  Z"
/>
<path fill="#9ba6b7" fill-opacity="0.922" d="
  M 65.48 72.64
  C 65.17 78.59 65.19 84.70 65.52 90.96
  C 65.67 93.65 65.71 96.22 65.66 98.65
  C 65.60 101.21 65.48 103.78 65.29 106.35
  C 65.13 108.57 66.47 109.99 68.77 109.68
  C 70.20 109.49 71.81 108.89 73.61 107.89
  C 74.78 107.24 76.23 106.86 77.98 106.74
  L 73.30 109.05
  C 70.61 109.52 68.41 110.87 66.72 113.10
  C 66.32 113.46 65.82 113.77 65.21 114.02
  C 64.34 114.06 63.67 113.88 63.22 113.47
  C 62.99 101.81 62.97 90.15 63.16 78.50
  C 63.17 77.55 63.32 76.29 63.61 74.70
  C 63.70 74.17 63.91 73.75 64.22 73.43
  C 64.68 72.94 65.10 72.68 65.48 72.64
  Z"
/>
<path fill="#9ea5bb" fill-opacity="0.761" d="
  M 278.06 72.66
  C 278.60 72.63 279.19 72.95 279.83 73.61
  C 280.07 73.86 280.21 74.16 280.25 74.51
  C 280.55 77.35 280.87 80.34 280.88 83.16
  C 280.95 141.65 280.97 200.05 280.92 258.35
  C 280.92 258.70 280.74 258.88 280.39 258.88
  L 205.44 258.94
  C 206.10 258.21 206.30 257.25 206.05 256.06
  L 277.71 256.22
  C 278.06 256.22 278.25 256.04 278.28 255.69
  C 278.63 250.37 278.17 244.68 278.16 239.30
  C 278.09 194.95 278.09 150.57 278.15 106.14
  C 278.16 100.24 278.42 94.19 278.94 87.99
  C 278.99 87.43 279.20 87.11 279.59 87.02
  C 279.88 86.96 280.04 86.79 280.07 86.50
  C 280.84 80.71 280.17 76.10 278.06 72.66
  Z"
/>
<path fill="#3c3d43" fill-opacity="0.200" d="
  M 254.37 84.86
  C 255.45 85.49 256.31 86.19 256.94 86.96
  C 257.15 87.21 257.42 87.39 257.73 87.48
  C 258.54 87.71 258.95 88.27 258.95 89.15
  C 258.96 138.48 258.96 187.88 258.95 237.33
  C 258.95 237.69 258.77 237.87 258.42 237.87
  L 205.90 237.98
  C 205.01 238.19 204.08 238.19 203.12 237.98
  C 203.41 237.47 203.39 236.71 203.06 235.70
  C 202.83 235.01 203.36 234.31 204.09 234.34
  C 205.32 234.39 206.61 234.11 207.91 234.10
  C 223.27 234.02 239.23 234.02 255.78 234.11
  C 256.12 234.11 256.39 233.81 256.36 233.47
  C 256.27 232.54 256.23 231.62 256.23 230.71
  C 256.21 184.16 256.20 137.72 256.20 91.37
  C 256.20 90.40 256.50 89.79 256.63 88.89
  C 256.68 88.56 256.59 88.28 256.36 88.03
  C 255.51 87.13 254.85 86.07 254.37 84.86
  Z"
/>
<path fill="#98a2b3" d="
  M 193.97 158.78
  C 193.52 158.49 192.98 158.29 192.36 158.18
  C 192.09 158.13 192.07 158.04 192.31 157.89
  C 192.43 157.81 192.43 157.72 192.32 157.63
  C 192.00 157.38 191.82 157.45 191.79 157.86
  C 191.67 159.31 191.08 160.47 191.07 161.91
  C 191.00 200.60 191.00 239.35 191.06 278.17
  L 22.38 278.30
  C 22.12 278.19 21.89 278.00 21.68 277.74
  C 21.87 277.17 21.97 276.75 21.98 276.50
  C 22.07 250.16 22.06 217.08 21.96 177.26
  C 21.95 172.22 21.61 167.28 21.09 162.18
  C 20.70 158.35 20.84 154.72 21.51 151.31
  C 21.58 150.98 21.71 150.69 21.92 150.42
  C 22.21 150.05 22.41 149.63 22.54 149.17
  C 22.62 148.86 22.80 148.59 23.04 148.38
  L 26.95 145.03
  L 88.73 115.99
  C 89.74 115.86 90.47 115.48 90.92 114.87
  C 92.68 114.16 94.45 113.28 96.23 112.25
  C 98.87 110.72 101.58 109.35 104.37 108.14
  C 105.25 107.76 106.11 107.63 106.96 107.75
  C 111.84 108.44 116.32 112.17 120.71 114.23
  C 128.59 117.91 136.47 121.47 144.35 124.92
  C 147.48 126.29 153.16 128.96 161.39 132.95
  C 165.34 134.86 169.63 137.04 174.26 139.47
  C 179.58 142.26 185.21 144.81 191.15 147.14
  C 191.76 147.37 192.21 147.50 192.89 147.40
  C 193.40 147.33 193.67 147.55 193.68 148.07
  L 193.97 158.78
  Z
  M 41.18 166.46
  L 41.11 258.36
  C 41.11 258.76 41.31 258.96 41.71 258.96
  L 171.26 258.97
  C 171.61 258.97 171.80 258.79 171.82 258.44
  L 171.97 255.79
  L 171.63 162.76
  C 171.04 161.45 170.00 160.63 168.50 160.31
  C 161.88 156.86 153.52 153.59 148.20 151.16
  C 137.01 146.06 125.34 141.13 115.00 135.38
  C 109.47 132.31 105.29 131.25 100.08 135.02
  C 96.95 137.29 92.68 138.59 89.01 140.27
  C 75.01 146.66 61.08 152.95 47.22 159.13
  C 45.53 159.88 43.87 161.01 42.23 162.50
  C 42.01 162.70 41.86 162.97 41.80 163.26
  L 41.18 166.46
  Z"
/>
<path fill="#9aa1b4" fill-opacity="0.600" d="
  M 73.30 109.05
  C 71.36 110.84 69.17 112.19 66.72 113.10
  C 68.41 110.87 70.61 109.52 73.30 109.05
  Z"
/>
<path fill="#3c3d43" fill-opacity="0.200" d="
  M 63.22 113.47
  C 63.67 113.88 64.34 114.06 65.21 114.02
  C 64.86 114.43 64.48 114.65 64.07 114.70
  C 63.71 114.74 63.46 114.59 63.32 114.25
  C 63.22 114.02 63.19 113.76 63.22 113.47
  Z"
/>
<path fill="#3c3d43" fill-opacity="0.200" d="
  M 90.92 114.87
  C 90.47 115.48 89.74 115.86 88.73 115.99
  C 89.11 115.06 89.84 114.68 90.92 114.87
  Z"
/>
<path fill="#9ea5bb" fill-opacity="0.761" d="
  M 26.95 145.03
  L 23.04 148.38
  C 22.80 148.59 22.62 148.86 22.54 149.17
  C 22.41 149.63 22.21 150.05 21.92 150.42
  C 21.71 150.69 21.58 150.98 21.51 151.31
  C 20.84 154.72 20.70 158.35 21.09 162.18
  C 21.61 167.28 21.95 172.22 21.96 177.26
  C 22.06 217.08 22.07 250.16 21.98 276.50
  C 21.97 276.75 21.87 277.17 21.68 277.74
  C 20.42 278.13 19.55 278.13 19.07 277.74
  L 19.12 152.32
  C 19.76 150.97 20.04 149.39 19.95 147.58
  L 26.95 145.03
  Z"
/>
<path fill="#3c3d43" fill-opacity="0.200" d="
  M 19.95 147.58
  C 20.04 149.39 19.76 150.97 19.12 152.32
  C 18.85 150.15 19.12 148.57 19.95 147.58
  Z"
/>
<path fill="#9ba6b7" fill-opacity="0.922" d="
  M 193.97 158.78
  L 193.98 278.27
  C 193.15 278.04 192.17 278.00 191.06 278.17
  C 191.00 239.35 191.00 200.60 191.07 161.91
  C 191.08 160.47 191.67 159.31 191.79 157.86
  C 191.82 157.45 192.00 157.38 192.32 157.63
  C 192.43 157.72 192.43 157.81 192.31 157.89
  C 192.07 158.04 192.09 158.13 192.36 158.18
  C 192.98 158.29 193.52 158.49 193.97 158.78
  Z"
/>
<path fill="#3c3d43" fill-opacity="0.200" d="
  M 168.50 160.31
  C 170.00 160.63 171.04 161.45 171.63 162.76
  C 170.34 162.67 169.29 161.86 168.50 160.31
  Z"
/>
<path fill="#3c3d43" fill-opacity="0.200" d="
  M 41.18 166.46
  C 42.90 171.29 43.75 175.31 43.73 178.50
  C 43.58 204.29 43.65 230.06 43.94 255.81
  C 43.94 255.93 44.04 256.03 44.16 256.03
  L 171.97 255.79
  L 171.82 258.44
  C 171.80 258.79 171.61 258.97 171.26 258.97
  L 41.71 258.96
  C 41.31 258.96 41.11 258.76 41.11 258.36
  L 41.18 166.46
  Z"
/>
<path fill="#9aa1b4" fill-opacity="0.600" d="
  M 203.12 237.98
  C 204.08 238.19 205.01 238.19 205.90 237.98
  L 206.05 256.06
  C 206.30 257.25 206.10 258.21 205.44 258.94
  L 203.73 258.93
  C 203.37 258.93 203.19 258.75 203.19 258.39
  L 203.12 237.98
  Z"
/>
<path fill="#9aa1b4" fill-opacity="0.600" d="
  M 19.07 277.74
  C 19.55 278.13 20.42 278.13 21.68 277.74
  C 21.89 278.00 22.12 278.19 22.38 278.30
  C 22.01 279.89 22.20 280.79 22.96 280.99
  L 19.65 280.88
  C 19.31 280.87 19.14 280.69 19.13 280.36
  L 19.07 277.74
  Z"
/>
<path fill="#9ea5bb" fill-opacity="0.761" d="
  M 193.98 278.27
  C 194.12 279.12 194.11 279.76 193.96 280.21
  C 193.81 280.64 193.33 280.86 192.50 280.86
  C 135.99 280.89 79.47 280.94 22.96 280.99
  C 22.20 280.79 22.01 279.89 22.38 278.30
  L 191.06 278.17
  C 192.17 278.00 193.15 278.04 193.98 278.27
  Z"
/>
</svg>
