<?xml version="1.0" encoding="UTF-8" standalone="no"?>
<!DOCTYPE svg PUBLIC "-//W3C//DTD SVG 1.1//EN" "http://www.w3.org/Graphics/SVG/1.1/DTD/svg11.dtd">
<svg xmlns="http://www.w3.org/2000/svg" version="1.1" viewBox="0.00 0.00 300.00 300.00">
<path fill="#5f6e75" d="
  M 202.51 32.05
  C 204.48 33.12 204.09 37.11 203.68 38.79
  C 203.60 39.13 203.42 39.40 203.15 39.61
  C 201.32 41.00 199.35 42.10 197.22 42.92
  C 182.12 48.78 166.61 54.70 150.68 60.68
  C 146.93 62.08 142.77 63.68 138.18 65.47
  C 110.01 76.46 81.69 87.37 53.24 98.20
  C 51.83 98.74 50.43 99.14 49.02 99.41
  C 48.72 99.46 48.48 99.71 48.43 100.02
  C 48.11 102.23 47.95 104.40 47.96 106.53
  C 48.01 144.14 48.02 180.47 47.97 215.52
  C 47.97 218.47 47.93 221.41 47.84 224.34
  C 47.83 224.76 47.61 224.99 47.19 225.02
  C 47.02 225.03 46.86 225.01 46.71 224.94
  C 46.41 224.81 46.11 224.81 45.80 224.95
  C 44.96 225.33 44.70 226.06 45.01 227.15
  C 45.15 227.65 44.96 227.90 44.44 227.91
  L 39.49 227.95
  C 38.98 227.96 38.80 227.72 38.96 227.23
  C 39.07 226.89 39.10 226.54 39.06 226.17
  C 39.01 225.76 38.83 225.44 38.53 225.21
  C 38.04 224.84 37.47 224.76 36.82 224.98
  C 36.45 225.11 36.05 224.84 36.05 224.44
  C 35.98 181.29 35.97 138.52 36.01 96.15
  C 36.02 95.09 36.22 94.05 36.62 93.04
  C 36.75 92.72 36.96 92.47 37.25 92.28
  C 38.37 91.58 38.89 90.84 40.23 90.32
  C 55.55 84.33 71.21 78.27 87.21 72.15
  C 110.18 63.36 134.13 54.16 159.06 44.57
  C 170.61 40.13 182.08 35.49 193.71 31.12
  C 195.46 30.46 200.64 29.02 201.79 31.31
  C 201.95 31.63 202.19 31.88 202.51 32.05
  Z"
/>
<path fill="#5f6e75" d="
  M 232.35 56.09
  C 233.06 56.16 233.49 56.57 233.65 57.32
  C 234.06 59.31 234.04 61.19 233.57 62.96
  C 233.49 63.27 233.30 63.54 233.05 63.73
  C 231.62 64.80 229.94 65.73 228.00 66.52
  C 221.54 69.17 214.92 71.75 208.15 74.24
  C 204.61 75.54 201.25 77.17 197.66 78.31
  C 196.21 78.77 194.78 79.27 193.36 79.82
  C 154.83 94.76 117.91 108.95 82.60 122.40
  C 81.47 122.83 80.25 123.15 78.94 123.36
  C 78.61 123.41 78.41 123.61 78.35 123.94
  C 78.08 125.33 77.95 126.69 77.96 128.00
  C 78.02 168.69 78.02 208.83 77.96 248.43
  C 77.96 249.02 77.68 249.21 77.12 249.02
  C 76.55 248.82 75.99 248.81 75.43 248.98
  C 75.06 249.10 74.88 249.36 74.90 249.75
  L 74.99 251.34
  C 75.01 251.74 74.82 251.94 74.42 251.94
  L 69.44 251.95
  C 69.00 251.95 68.84 251.74 68.95 251.31
  C 69.10 250.77 69.13 250.23 69.03 249.68
  C 68.94 249.25 68.69 249.00 68.26 248.92
  C 67.77 248.83 67.30 248.84 66.83 248.94
  C 66.30 249.05 66.03 248.84 66.03 248.29
  C 65.90 203.53 65.91 160.63 66.04 119.58
  C 66.05 117.20 67.24 115.54 69.60 114.61
  C 83.93 108.94 97.50 103.71 110.29 98.93
  C 114.62 97.32 119.32 95.52 124.41 93.55
  C 157.02 80.88 189.49 68.32 221.80 55.87
  C 224.29 54.91 226.63 54.30 228.83 54.04
  C 230.36 53.85 231.36 54.40 231.81 55.67
  C 231.90 55.92 232.08 56.06 232.35 56.09
  Z"
/>
<path fill="#5f6e75" d="
  M 97.71 279.93
  C 96.60 279.26 96.04 278.25 96.03 276.88
  C 95.98 233.94 95.98 189.58 96.02 143.80
  C 96.03 141.39 97.19 139.71 99.52 138.78
  C 112.64 133.50 125.80 128.34 139.01 123.29
  C 177.40 108.62 216.31 93.64 255.76 78.35
  C 256.51 78.06 258.09 78.01 260.49 78.22
  C 260.85 78.25 261.12 78.43 261.31 78.74
  C 261.49 79.05 261.59 79.39 261.61 79.76
  C 261.63 80.13 261.82 80.34 262.19 80.41
  C 262.32 80.43 262.42 80.38 262.47 80.26
  C 262.67 79.84 262.87 79.84 263.08 80.26
  C 263.70 81.54 264.01 82.95 264.01 84.50
  C 264.01 128.21 264.03 169.80 264.08 209.25
  C 264.08 212.42 263.90 215.53 263.54 218.59
  C 263.42 219.54 262.81 220.35 261.94 220.73
  C 254.20 224.10 246.31 227.25 238.27 230.19
  C 234.71 231.49 231.36 233.18 227.72 234.36
  C 226.30 234.83 224.85 235.34 223.37 235.91
  C 200.22 244.82 178.61 253.15 158.55 260.91
  C 137.27 269.15 119.26 275.98 104.51 281.39
  C 102.86 282.00 100.39 281.91 97.10 281.14
  C 96.67 281.04 96.63 280.87 97.00 280.62
  C 97.17 280.50 97.36 280.44 97.55 280.45
  C 98.30 280.49 98.36 280.32 97.71 279.93
  Z
  M 112.97 265.45
  C 113.34 265.12 113.76 264.89 114.23 264.76
  C 114.92 264.57 115.71 264.30 116.59 263.97
  C 154.40 249.54 191.69 235.16 228.46 220.82
  C 237.19 217.42 244.47 214.73 250.32 212.75
  C 251.47 212.36 252.04 211.57 252.04 210.36
  C 251.97 174.27 251.97 139.24 252.04 105.25
  C 252.05 100.10 251.97 96.25 251.82 93.71
  C 251.80 93.37 251.63 93.17 251.30 93.11
  C 249.90 92.84 248.80 93.26 248.01 94.37
  C 247.82 94.64 247.56 94.82 247.24 94.93
  C 243.87 96.00 240.52 97.21 237.18 98.56
  C 233.89 99.89 230.56 101.20 227.21 102.50
  C 207.15 110.28 187.05 117.80 166.58 125.76
  C 149.23 132.50 131.53 139.29 113.49 146.14
  C 112.00 146.70 110.49 147.09 108.96 147.30
  C 108.61 147.35 108.41 147.55 108.36 147.90
  C 108.09 149.58 107.96 151.25 107.96 152.90
  C 107.99 189.01 108.00 226.69 108.01 265.93
  C 108.01 266.54 108.31 266.86 108.92 266.90
  C 110.44 266.99 111.79 266.51 112.97 265.45
  Z"
/>
</svg>
