<?xml version="1.0" encoding="UTF-8" standalone="no"?>
<!DOCTYPE svg PUBLIC "-//W3C//DTD SVG 1.1//EN" "http://www.w3.org/Graphics/SVG/1.1/DTD/svg11.dtd">
<svg xmlns="http://www.w3.org/2000/svg" version="1.1" viewBox="0.00 0.00 300.00 300.00">
<path fill="#818d93" d="
  M 0.00 51.19
  L 0.00 44.96
  C 2.42 31.29 13.85 22.48 27.69 24.25
  C 38.19 25.58 46.59 34.84 47.91 45.24
  C 49.68 59.17 38.46 71.60 24.68 72.04
  C 12.09 72.44 2.42 63.48 0.00 51.19
  Z
  M 35.93 48.02
  C 35.93 41.41 30.58 36.06 23.97 36.06
  C 17.36 36.06 12.01 41.41 12.01 48.02
  C 12.01 54.63 17.36 59.98 23.97 59.98
  C 30.58 59.98 35.93 54.63 35.93 48.02
  Z"
/>
<path fill="#818d93" d="
  M 300.00 42.01
  L 300.00 53.99
  L 72.73 54.00
  C 72.33 54.00 72.01 53.68 72.01 53.28
  L 72.01 42.77
  C 72.01 42.35 72.35 42.01 72.77 42.01
  L 300.00 42.01
  Z"
/>
<path fill="#818d93" d="
  M 0.00 153.16
  L 0.00 146.90
  C 2.13 135.65 10.79 126.72 22.23 126.07
  C 28.42 125.72 33.77 127.28 38.28 130.73
  C 56.02 144.31 48.07 171.88 26.00 173.96
  C 12.93 175.19 2.52 165.92 0.00 153.16
  Z
  M 35.92 150.01
  C 35.92 143.39 30.56 138.03 23.94 138.03
  C 17.32 138.03 11.96 143.39 11.96 150.01
  C 11.96 156.63 17.32 161.99 23.94 161.99
  C 30.56 161.99 35.92 156.63 35.92 150.01
  Z"
/>
<path fill="#818d93" d="
  M 300.00 144.01
  L 300.00 155.99
  L 72.77 156.00
  C 72.35 156.00 72.01 155.66 72.01 155.24
  L 72.00 144.95
  C 72.00 144.43 72.42 144.01 72.94 144.01
  L 300.00 144.01
  Z"
/>
<path fill="#818d93" d="
  M 0.00 255.19
  L 0.00 248.93
  C 3.48 228.44 27.95 220.64 41.93 236.13
  C 50.17 245.27 50.12 259.40 41.46 268.47
  C 32.76 277.56 19.08 278.66 9.11 270.87
  C 4.32 267.14 1.29 261.91 0.00 255.19
  Z
  M 35.93 252.00
  C 35.93 245.39 30.57 240.03 23.96 240.03
  C 17.35 240.03 11.99 245.39 11.99 252.00
  C 11.99 258.61 17.35 263.97 23.96 263.97
  C 30.57 263.97 35.93 258.61 35.93 252.00
  Z"
/>
<path fill="#818d93" d="
  M 300.00 246.01
  L 300.00 257.97
  L 72.72 257.98
  C 72.33 257.98 72.01 257.67 72.01 257.28
  L 72.00 246.97
  C 72.00 246.43 72.43 246.00 72.97 246.00
  L 300.00 246.01
  Z"
/>
</svg>
