<?xml version="1.0" encoding="UTF-8" standalone="no"?>
<!DOCTYPE svg PUBLIC "-//W3C//DTD SVG 1.1//EN" "http://www.w3.org/Graphics/SVG/1.1/DTD/svg11.dtd">
<svg xmlns="http://www.w3.org/2000/svg" version="1.1" viewBox="0.00 0.00 300.00 300.00">
<path fill="#98a2b3" d="
  M 254.42 112.47
  C 255.27 114.91 255.73 117.42 255.82 120.00
  C 256.13 128.74 256.10 136.82 255.73 144.25
  C 255.65 145.73 255.36 147.23 254.87 148.74
  C 253.76 152.12 253.42 154.43 252.88 157.53
  C 252.60 159.14 252.26 160.60 251.87 161.91
  C 247.96 174.99 241.99 186.68 233.01 197.27
  C 228.24 202.90 223.72 208.68 218.67 214.17
  C 212.65 220.70 206.91 227.08 201.44 233.30
  C 196.87 238.49 192.37 243.41 187.93 248.05
  C 182.33 253.91 176.62 259.91 170.81 266.04
  C 161.32 276.03 147.43 277.57 135.58 271.14
  C 132.68 269.57 130.24 267.16 127.99 264.76
  C 121.68 258.02 115.39 251.39 109.11 244.86
  C 103.12 238.63 97.63 231.84 91.75 225.53
  C 79.54 212.43 69.68 200.92 62.17 190.99
  C 56.54 183.54 51.79 173.55 47.92 161.00
  C 46.80 157.36 46.95 153.43 45.62 149.97
  C 44.83 147.92 44.40 145.90 44.33 143.91
  C 44.08 137.50 44.00 130.72 44.09 123.55
  C 44.15 118.88 44.69 115.12 45.71 112.26
  C 46.94 108.84 46.81 105.47 47.82 102.07
  C 51.65 89.22 56.53 78.55 64.28 68.93
  C 66.50 66.17 68.70 63.43 70.89 60.71
  C 79.58 49.91 92.29 41.98 104.59 35.16
  C 112.83 30.59 121.74 28.53 131.29 26.62
  C 140.80 24.72 150.28 24.74 159.69 25.31
  C 165.87 25.68 172.41 27.36 178.54 28.78
  C 185.59 30.41 192.24 33.09 198.48 36.82
  C 210.03 43.73 220.92 50.58 229.36 60.94
  C 233.47 65.98 237.90 71.29 241.38 76.78
  C 245.28 82.94 248.77 90.90 251.84 100.66
  C 253.11 104.70 253.06 108.50 254.42 112.47
  Z
  M 234.67 151.59
  C 235.53 147.17 237.58 142.99 237.81 138.51
  C 238.04 133.94 238.07 129.12 237.90 124.06
  C 237.74 119.61 235.76 115.33 234.71 110.95
  C 231.67 98.23 225.59 85.46 217.84 75.97
  C 214.45 71.81 209.39 67.00 202.68 61.54
  C 198.17 57.87 193.86 55.06 189.76 53.10
  C 184.03 50.36 178.72 48.42 173.84 47.28
  C 167.41 45.78 162.39 44.85 158.80 44.48
  C 144.38 42.99 130.06 45.54 116.41 50.59
  C 114.22 51.40 112.02 52.35 109.80 53.43
  C 107.19 54.70 104.79 56.14 102.58 57.75
  C 93.31 64.46 86.06 71.06 80.85 77.55
  C 74.90 84.95 70.24 94.32 66.89 105.67
  C 64.70 113.11 63.44 119.78 63.13 125.67
  C 62.76 132.72 62.89 138.26 63.52 142.28
  C 64.12 146.07 65.22 150.92 66.83 156.85
  C 68.10 161.55 69.64 165.70 71.43 169.30
  C 74.82 176.13 78.69 182.22 83.04 187.55
  C 87.85 193.46 93.33 198.82 98.30 204.61
  C 106.09 213.69 114.53 222.35 122.53 231.36
  C 129.74 239.46 137.33 247.97 145.32 254.18
  C 148.31 256.51 151.27 256.62 154.20 254.50
  C 165.55 246.26 174.06 235.00 183.74 224.82
  C 189.35 218.91 194.83 212.82 200.17 206.55
  C 206.40 199.23 213.83 192.24 219.17 184.63
  C 223.02 179.15 226.80 173.20 229.57 167.20
  C 230.92 164.27 231.73 161.05 232.87 158.02
  C 233.64 155.97 234.24 153.83 234.67 151.59
  Z"
/>
<path fill="#98a2b3" d="
  M 182.06 150.75
  C 178.75 156.80 172.46 163.63 165.64 166.11
  C 153.65 170.47 142.21 169.98 131.30 164.63
  C 128.09 163.06 124.90 160.26 121.74 156.25
  C 112.06 143.95 110.27 130.17 116.37 114.92
  C 120.40 104.86 127.57 98.90 137.82 95.80
  C 154.84 90.66 175.11 96.23 182.94 113.53
  C 183.93 115.71 184.91 117.89 185.89 120.06
  C 188.35 125.52 188.36 132.39 187.40 138.08
  C 186.68 142.33 184.14 146.92 182.06 150.75
  Z
  M 168.9536 130.0752
  C 169.03 120.86 161.63 113.32 152.4099 113.2402
  L 147.9500 113.2012
  C 138.73 113.12 131.20 120.53 131.1150 129.7450
  L 131.0864 133.0248
  C 131.01 142.24 138.41 149.78 147.6301 149.8598
  L 152.0900 149.8988
  C 161.31 149.98 168.84 142.57 168.9250 133.3550
  L 168.9536 130.0752
  Z"
/>
</svg>
