<?xml version="1.0" encoding="UTF-8" standalone="no"?>
<!DOCTYPE svg PUBLIC "-//W3C//DTD SVG 1.1//EN" "http://www.w3.org/Graphics/SVG/1.1/DTD/svg11.dtd">
<svg xmlns="http://www.w3.org/2000/svg" version="1.1" viewBox="0.00 0.00 300.00 300.00">
<path fill="#08202c" d="
  M 161.62 285.88
  C 163.86 285.92 165.98 286.04 167.97 286.25
  C 169.70 286.42 169.73 286.76 168.07 287.25
  C 166.75 287.64 165.23 287.84 163.50 287.87
  C 155.88 287.96 148.79 287.94 142.24 287.81
  C 136.27 287.68 132.23 287.33 130.13 286.76
  C 125.40 285.47 120.29 284.99 115.93 283.69
  C 112.09 282.55 108.28 281.72 104.52 280.37
  C 63.44 265.59 31.98 233.76 18.62 192.15
  C 16.80 186.47 15.49 181.19 14.68 176.32
  C 13.73 170.51 12.33 165.19 12.15 159.21
  C 11.87 149.39 11.51 139.07 13.57 129.51
  C 14.54 125.01 15.00 120.57 16.12 116.09
  C 18.00 108.59 20.74 100.60 24.33 92.11
  C 24.92 90.71 25.58 89.40 26.31 88.19
  C 26.74 87.48 27.59 87.17 28.37 87.44
  C 31.20 88.42 33.86 89.73 36.35 91.36
  C 36.65 91.56 36.80 91.84 36.79 92.20
  C 36.78 93.33 36.56 94.38 36.13 95.37
  C 32.66 103.29 29.87 111.44 27.74 119.83
  C 27.15 122.14 26.74 124.46 26.49 126.80
  C 26.14 130.19 25.08 133.47 24.74 136.74
  C 23.87 144.98 23.78 153.14 24.46 161.22
  C 24.68 163.89 25.11 166.57 25.76 169.25
  C 26.61 172.76 26.68 176.37 27.60 179.92
  C 33.18 201.69 43.19 220.30 57.62 235.77
  C 71.80 250.98 88.77 262.02 108.52 268.91
  C 115.21 271.24 121.60 272.84 127.69 273.73
  C 127.84 273.76 129.85 274.15 133.71 274.92
  C 136.82 275.54 140.50 275.87 144.75 275.90
  C 154.12 275.98 161.44 275.80 166.71 275.35
  C 167.28 275.30 167.78 275.14 168.22 274.87
  C 168.55 274.67 168.85 274.45 169.14 274.21
  C 169.40 274.00 169.69 273.87 170.02 273.83
  C 171.73 273.62 173.45 273.41 175.17 273.19
  C 179.48 272.65 183.66 271.36 187.84 270.22
  C 190.21 269.57 192.70 268.71 195.31 267.66
  C 200.43 265.59 203.74 264.17 205.24 263.42
  C 215.81 258.11 224.86 252.19 232.41 245.64
  C 247.72 232.35 259.40 215.68 267.46 195.63
  C 269.44 190.73 270.77 185.69 272.22 180.52
  C 273.05 177.58 273.64 173.79 274.01 169.16
  C 274.04 168.84 274.17 168.57 274.40 168.34
  L 274.64 168.11
  C 274.86 167.90 274.99 167.61 275.02 167.30
  C 275.15 165.25 275.93 163.58 275.95 161.45
  C 276.00 152.70 275.98 144.53 275.89 136.94
  C 275.87 135.10 275.19 133.41 275.14 131.54
  C 275.13 131.25 275.05 131.00 274.90 130.77
  C 274.83 130.67 274.73 130.60 274.61 130.57
  C 274.24 130.46 274.03 130.21 273.99 129.82
  C 273.56 126.03 272.99 122.69 272.28 119.80
  C 268.60 104.88 262.61 91.35 254.32 79.22
  C 239.07 56.91 218.75 41.04 193.35 31.59
  C 191.08 30.74 188.81 30.05 186.56 29.51
  C 183.46 28.77 180.55 27.39 177.44 26.98
  C 171.31 26.17 165.05 24.71 158.82 24.33
  C 152.39 23.94 145.94 23.97 139.45 24.41
  C 134.27 24.77 129.29 26.31 123.99 26.99
  C 121.68 27.29 119.16 27.92 116.41 28.87
  C 113.01 30.05 109.47 30.77 105.98 32.15
  C 100.62 34.26 96.37 36.13 93.24 37.76
  C 88.27 40.35 82.87 43.59 77.02 47.46
  C 75.73 48.31 74.17 49.57 72.33 51.22
  C 70.88 52.52 69.27 53.75 67.48 54.91
  C 67.04 55.20 66.69 55.56 66.42 56.01
  C 66.18 56.41 65.85 56.78 65.42 57.11
  C 65.19 57.30 64.94 57.34 64.67 57.24
  C 63.92 56.99 63.38 57.30 63.05 58.18
  C 62.80 58.83 63.23 59.55 63.93 59.63
  C 65.18 59.77 66.44 60.03 67.72 60.02
  C 77.55 59.95 87.42 59.95 97.33 60.00
  C 99.59 60.01 101.82 60.16 104.03 60.44
  C 105.18 60.58 105.81 61.14 105.93 62.12
  C 105.94 62.22 105.99 62.26 106.09 62.23
  C 106.98 62.02 107.51 62.41 107.67 63.41
  C 107.98 65.36 108.02 67.10 107.79 68.62
  C 107.75 68.87 107.63 69.08 107.44 69.24
  C 107.34 69.33 107.26 69.42 107.19 69.53
  C 106.97 69.88 106.76 69.88 106.55 69.54
  C 106.51 69.47 106.46 69.40 106.39 69.35
  C 106.30 69.28 106.21 69.25 106.10 69.28
  C 105.97 69.31 105.85 69.37 105.76 69.46
  C 105.57 69.65 105.52 69.86 105.61 70.11
  C 105.87 70.90 105.59 71.37 104.76 71.50
  C 103.43 71.72 102.14 71.84 100.89 71.85
  C 81.38 72.02 61.92 72.06 42.49 71.95
  C 42.15 71.94 41.98 71.77 41.98 71.43
  L 42.04 9.96
  C 42.04 9.87 42.06 9.78 42.10 9.69
  C 42.62 8.48 43.01 8.10 43.27 8.54
  C 43.45 8.84 43.87 8.89 44.11 8.64
  L 44.49 8.25
  C 44.76 7.97 44.73 7.73 44.40 7.53
  C 44.08 7.34 44.27 6.96 44.98 6.41
  C 45.17 6.26 45.40 6.17 45.65 6.15
  C 47.04 6.05 48.54 6.02 50.15 6.05
  C 50.62 6.06 51.01 6.23 51.30 6.57
  C 51.63 6.96 51.71 7.40 51.54 7.91
  C 51.45 8.19 51.54 8.38 51.81 8.47
  C 52.16 8.58 52.48 8.48 52.76 8.17
  C 52.91 8.00 52.93 7.81 52.80 7.62
  L 52.64 7.38
  C 52.54 7.23 52.55 7.08 52.67 6.94
  C 52.83 6.75 52.99 6.72 53.15 6.83
  C 53.21 6.87 53.22 6.92 53.18 6.98
  C 52.79 7.60 52.83 8.20 53.28 8.77
  C 53.51 9.06 53.63 9.38 53.66 9.73
  C 53.92 13.18 54.06 16.73 54.07 20.38
  C 54.10 28.56 54.04 36.85 53.88 45.24
  C 53.85 46.81 54.57 48.52 54.31 50.00
  C 54.23 50.45 54.61 50.85 55.07 50.79
  L 56.49 50.59
  C 57.02 50.52 57.16 50.24 56.91 49.77
  L 56.77 49.49
  C 56.26 48.53 57.20 47.42 58.41 47.54
  C 59.30 47.63 59.72 47.24 59.66 46.37
  C 59.63 45.97 59.76 45.64 60.07 45.38
  C 63.89 42.10 68.30 38.82 73.30 35.54
  C 83.90 28.59 94.55 23.24 105.26 19.49
  C 107.41 18.74 109.59 18.13 111.79 17.66
  C 114.36 17.11 116.52 15.96 119.09 15.49
  C 122.70 14.82 126.23 14.18 129.70 13.56
  C 133.68 12.85 137.23 12.41 140.36 12.25
  C 151.04 11.70 161.91 11.81 172.12 13.85
  C 174.19 14.26 176.29 14.63 178.41 14.96
  C 182.76 15.62 186.76 17.11 190.99 18.24
  C 192.53 18.65 194.13 19.15 195.79 19.75
  C 237.27 34.72 268.05 66.55 281.70 108.63
  C 283.93 115.53 285.37 122.35 286.01 129.08
  C 286.02 129.29 286.13 129.43 286.32 129.52
  C 286.61 129.65 286.78 129.87 286.84 130.18
  C 287.31 132.46 287.86 134.59 287.89 136.96
  C 288.02 146.45 288.01 156.02 287.87 165.68
  C 287.86 166.79 287.51 167.91 287.32 169.01
  C 287.25 169.40 287.02 169.60 286.61 169.61
  L 286.30 169.62
  C 286.13 169.63 286.03 169.72 286.02 169.89
  C 285.71 174.74 285.01 179.30 283.90 183.55
  C 277.33 208.84 265.01 230.41 246.92 248.24
  C 228.72 266.19 207.05 278.21 181.90 284.32
  C 177.25 285.45 170.49 285.97 161.62 285.88
  C 161.15 285.87 161.15 285.87 161.62 285.88
  Z"
/>
<path fill="#08202c" d="
  M 143.12 139.99
  C 143.11 139.94 143.11 139.89 143.13 139.84
  C 143.20 139.60 143.15 139.57 142.97 139.74
  C 142.92 139.79 142.84 139.80 142.73 139.75
  C 142.67 139.72 142.64 139.67 142.64 139.60
  C 142.64 139.21 142.78 138.88 143.06 138.62
  C 143.28 138.43 143.41 138.16 143.44 137.86
  C 143.79 134.13 143.96 130.91 143.97 128.19
  C 144.02 107.01 144.03 82.53 143.98 54.75
  C 143.98 54.34 144.32 54.01 144.73 54.01
  L 154.96 54.00
  C 155.54 54.00 156.01 54.47 156.01 55.05
  C 155.97 77.32 155.98 101.23 156.05 126.77
  C 156.06 129.52 156.18 132.82 156.41 136.65
  C 156.46 137.39 156.64 138.09 156.96 138.76
  C 158.80 142.59 161.92 146.72 161.92 150.95
  C 161.91 158.34 154.83 160.81 148.97 162.11
  C 147.82 162.36 146.76 162.90 145.77 163.73
  C 142.21 166.72 138.96 169.68 136.01 172.61
  C 126.46 182.11 116.78 191.83 106.98 201.78
  C 106.78 201.98 106.45 202.00 106.22 201.82
  C 103.26 199.49 100.70 196.97 98.55 194.28
  C 98.14 193.76 98.17 193.27 98.64 192.80
  C 108.63 182.83 118.41 173.15 127.99 163.74
  C 130.39 161.39 133.13 158.15 136.22 154.04
  C 137.62 152.18 138.15 150.05 138.76 147.88
  C 138.84 147.59 139.04 147.36 139.31 147.23
  L 139.63 147.08
  C 139.95 146.93 140.13 146.68 140.17 146.33
  C 140.45 144.12 141.26 142.00 142.61 139.97
  C 142.65 139.91 142.71 139.89 142.78 139.90
  C 142.89 139.91 142.97 139.96 143.02 140.03
  C 143.12 140.17 143.15 140.16 143.12 139.99
  Z"
/>
</svg>
